{
    "asset" : {
        "generator" : "Khronos glTF Blender I/O v1.3.48",
        "version" : "2.0"
    },
    "scene" : 0,
    "scenes" : [
        {
            "name" : "Scene",
            "nodes" : [
                0
            ]
        }
    ],
    "nodes" : [
        {
            "mesh" : 0,
            "name" : "kitchen",
            "scale" : [
                0.5830721855163574,
                0.5830721855163574,
                0.5830721855163574
            ],
            "translation" : [
                -4.424971580505371,
                0.5203965902328491,
                0
            ]
        }
    ],
    "materials" : [
        {
            "doubleSided" : true,
            "emissiveFactor" : [
                0,
                0,
                0
            ],
            "name" : "Material.001",
            "pbrMetallicRoughness" : {
                "baseColorFactor" : [
                    0.800000011920929,
                    0.800000011920929,
                    0.800000011920929,
                    1
                ],
                "metallicFactor" : 0.652482271194458,
                "roughnessFactor" : 0.5
            }
        },
        {
            "doubleSided" : true,
            "emissiveFactor" : [
                0,
                0,
                0
            ],
            "name" : "Material",
            "pbrMetallicRoughness" : {
                "baseColorFactor" : [
                    0.800000011920929,
                    0.800000011920929,
                    0.800000011920929,
                    1
                ],
                "metallicFactor" : 0,
                "roughnessFactor" : 0.4000000059604645
            }
        },
        {
            "doubleSided" : true,
            "emissiveFactor" : [
                0.9699217081069946,
                0.9699217081069946,
                0.9699217081069946
            ],
            "name" : "Material.004",
            "pbrMetallicRoughness" : {
                "baseColorFactor" : [
                    0.800000011920929,
                    0.800000011920929,
                    0.800000011920929,
                    1
                ],
                "metallicFactor" : 0,
                "roughnessFactor" : 0.5
            }
        },
        {
            "doubleSided" : true,
            "emissiveFactor" : [
                0,
                0,
                0
            ],
            "name" : "Material.005",
            "pbrMetallicRoughness" : {
                "baseColorFactor" : [
                    0.800000011920929,
                    0.800000011920929,
                    0.800000011920929,
                    1
                ],
                "metallicFactor" : 0.8014184236526489,
                "roughnessFactor" : 0.5
            }
        }
    ],
    "meshes" : [
        {
            "name" : "Cube.008",
            "primitives" : [
                {
                    "attributes" : {
                        "POSITION" : 0,
                        "NORMAL" : 1,
                        "TEXCOORD_0" : 2
                    },
                    "indices" : 3,
                    "material" : 0
                },
                {
                    "attributes" : {
                        "POSITION" : 4,
                        "NORMAL" : 5,
                        "TEXCOORD_0" : 6
                    },
                    "indices" : 7,
                    "material" : 1
                },
                {
                    "attributes" : {
                        "POSITION" : 8,
                        "NORMAL" : 9,
                        "TEXCOORD_0" : 10
                    },
                    "indices" : 11,
                    "material" : 2
                },
                {
                    "attributes" : {
                        "POSITION" : 12,
                        "NORMAL" : 13,
                        "TEXCOORD_0" : 14
                    },
                    "indices" : 15,
                    "material" : 3
                }
            ]
        }
    ],
    "accessors" : [
        {
            "bufferView" : 0,
            "componentType" : 5126,
            "count" : 174,
            "max" : [
                17.58278465270996,
                6.004260063171387,
                8.575267791748047
            ],
            "min" : [
                -2.4046578407287598,
                -1,
                -8.575267791748047
            ],
            "type" : "VEC3"
        },
        {
            "bufferView" : 1,
            "componentType" : 5126,
            "count" : 174,
            "type" : "VEC3"
        },
        {
            "bufferView" : 2,
            "componentType" : 5126,
            "count" : 174,
            "type" : "VEC2"
        },
        {
            "bufferView" : 3,
            "componentType" : 5123,
            "count" : 300,
            "type" : "SCALAR"
        },
        {
            "bufferView" : 4,
            "componentType" : 5126,
            "count" : 24,
            "max" : [
                9.304117202758789,
                0.39601564407348633,
                3.508868932723999
            ],
            "min" : [
                5.874009609222412,
                -0.9193706512451172,
                -1.715053677558899
            ],
            "type" : "VEC3"
        },
        {
            "bufferView" : 5,
            "componentType" : 5126,
            "count" : 24,
            "type" : "VEC3"
        },
        {
            "bufferView" : 6,
            "componentType" : 5126,
            "count" : 24,
            "type" : "VEC2"
        },
        {
            "bufferView" : 7,
            "componentType" : 5123,
            "count" : 36,
            "type" : "SCALAR"
        },
        {
            "bufferView" : 8,
            "componentType" : 5126,
            "count" : 48,
            "max" : [
                12.858884811401367,
                6.076154708862305,
                -1.2880263328552246
            ],
            "min" : [
                2.841291904449463,
                5.858059883117676,
                -3.890138626098633
            ],
            "type" : "VEC3"
        },
        {
            "bufferView" : 9,
            "componentType" : 5126,
            "count" : 48,
            "type" : "VEC3"
        },
        {
            "bufferView" : 10,
            "componentType" : 5126,
            "count" : 48,
            "type" : "VEC2"
        },
        {
            "bufferView" : 11,
            "componentType" : 5123,
            "count" : 72,
            "type" : "SCALAR"
        },
        {
            "bufferView" : 12,
            "componentType" : 5126,
            "count" : 108,
            "max" : [
                4.363170623779297,
                2.413161277770996,
                -6.7108049392700195
            ],
            "min" : [
                1.0826401710510254,
                -0.8925080299377441,
                -8.2594575881958
            ],
            "type" : "VEC3"
        },
        {
            "bufferView" : 13,
            "componentType" : 5126,
            "count" : 108,
            "type" : "VEC3"
        },
        {
            "bufferView" : 14,
            "componentType" : 5126,
            "count" : 108,
            "type" : "VEC2"
        },
        {
            "bufferView" : 15,
            "componentType" : 5123,
            "count" : 162,
            "type" : "SCALAR"
        }
    ],
    "bufferViews" : [
        {
            "buffer" : 0,
            "byteLength" : 2088,
            "byteOffset" : 0
        },
        {
            "buffer" : 0,
            "byteLength" : 2088,
            "byteOffset" : 2088
        },
        {
            "buffer" : 0,
            "byteLength" : 1392,
            "byteOffset" : 4176
        },
        {
            "buffer" : 0,
            "byteLength" : 600,
            "byteOffset" : 5568
        },
        {
            "buffer" : 0,
            "byteLength" : 288,
            "byteOffset" : 6168
        },
        {
            "buffer" : 0,
            "byteLength" : 288,
            "byteOffset" : 6456
        },
        {
            "buffer" : 0,
            "byteLength" : 192,
            "byteOffset" : 6744
        },
        {
            "buffer" : 0,
            "byteLength" : 72,
            "byteOffset" : 6936
        },
        {
            "buffer" : 0,
            "byteLength" : 576,
            "byteOffset" : 7008
        },
        {
            "buffer" : 0,
            "byteLength" : 576,
            "byteOffset" : 7584
        },
        {
            "buffer" : 0,
            "byteLength" : 384,
            "byteOffset" : 8160
        },
        {
            "buffer" : 0,
            "byteLength" : 144,
            "byteOffset" : 8544
        },
        {
            "buffer" : 0,
            "byteLength" : 1296,
            "byteOffset" : 8688
        },
        {
            "buffer" : 0,
            "byteLength" : 1296,
            "byteOffset" : 9984
        },
        {
            "buffer" : 0,
            "byteLength" : 864,
            "byteOffset" : 11280
        },
        {
            "buffer" : 0,
            "byteLength" : 324,
            "byteOffset" : 12144
        }
    ],
    "buffers" : [
        {
            "byteLength" : 12468,
            "uri" : "data:application/octet-stream;base64,"
        }
    ]
}
