<?xml version="1.0" encoding="UTF-8" standalone="no"?>
<!-- Created with Inkscape (http://www.inkscape.org/) -->

<svg
   xmlns:dc="http://purl.org/dc/elements/1.1/"
   xmlns:cc="http://creativecommons.org/ns#"
   xmlns:rdf="http://www.w3.org/1999/02/22-rdf-syntax-ns#"
   xmlns:svg="http://www.w3.org/2000/svg"
   xmlns="http://www.w3.org/2000/svg"
   xmlns:sodipodi="http://sodipodi.sourceforge.net/DTD/sodipodi-0.dtd"
   xmlns:inkscape="http://www.inkscape.org/namespaces/inkscape"
   id="svg2"
   version="1.1"
   inkscape:version="0.91 r13725"
   xml:space="preserve"
   width="898.75958"
   height="810"
   viewBox="0 0 898.7596 810"
   sodipodi:docname="publicdomainq-business-man-and-woman-laughing.svg"
   inkscape:export-filename="/media/sdb1/_GRAFIKA/Publicdomainq/lidi/publicdomainq-business-man-and-woman-laughing.png"
   inkscape:export-xdpi="88.930695"
   inkscape:export-ydpi="88.930695"><title
     id="title7771">Business mand and woman - laughing</title><metadata
     id="metadata8"><rdf:RDF><cc:Work
         rdf:about=""><dc:format>image/svg+xml</dc:format><dc:type
           rdf:resource="http://purl.org/dc/dcmitype/StillImage" /><dc:title>Business mand and woman - laughing</dc:title><cc:license
           rdf:resource="http://creativecommons.org/publicdomain/zero/1.0/" /><dc:subject><rdf:Bag><rdf:li>man</rdf:li><rdf:li>woman</rdf:li><rdf:li>male</rdf:li><rdf:li>female</rdf:li><rdf:li>work</rdf:li><rdf:li>office</rdf:li><rdf:li>laughing</rdf:li><rdf:li>laugh</rdf:li><rdf:li>fun</rdf:li><rdf:li>suit</rdf:li><rdf:li>tie</rdf:li><rdf:li>publicdomainq.net</rdf:li></rdf:Bag></dc:subject><dc:description>This image was adapted from a picture posted to publicdomainq.net. All of the images on these sites are in the public domain i.e. CC0. This site is only in Japanese but can be easily navigated with Google Translate.</dc:description></cc:Work><cc:License
         rdf:about="http://creativecommons.org/publicdomain/zero/1.0/"><cc:permits
           rdf:resource="http://creativecommons.org/ns#Reproduction" /><cc:permits
           rdf:resource="http://creativecommons.org/ns#Distribution" /><cc:permits
           rdf:resource="http://creativecommons.org/ns#DerivativeWorks" /></cc:License></rdf:RDF></metadata><defs
     id="defs6" /><sodipodi:namedview
     pagecolor="#ffffff"
     bordercolor="#666666"
     borderopacity="1"
     objecttolerance="10"
     gridtolerance="10"
     guidetolerance="10"
     inkscape:pageopacity="0"
     inkscape:pageshadow="2"
     inkscape:window-width="1920"
     inkscape:window-height="1125"
     id="namedview4"
     showgrid="false"
     inkscape:zoom="0.52493852"
     inkscape:cx="127.28432"
     inkscape:cy="115.0719"
     inkscape:window-x="0"
     inkscape:window-y="0"
     inkscape:window-maximized="1"
     inkscape:current-layer="svg2"
     fit-margin-top="5"
     fit-margin-left="5"
     fit-margin-bottom="5"
     fit-margin-right="5" /><g
     id="g12"
     transform="matrix(0.45424854,0,0,-0.45424854,4.9828161,804.95644)"><path
       d="M 1848.04,9.10156 C 1878.01,324.102 1856.88,469.559 1801.87,485 c -27.17,7.621 -186.02,65.91 -238.56,86.238 l -113.6,0.653 C 1397.16,551.57 1234.99,492.621 1207.83,485 1152.82,469.559 1131.68,324.102 1158.33,9.10156 l 689.71,0"
       style="fill:#f89d8f;fill-opacity:1;fill-rule:nonzero;stroke:none"
       id="path14"
       inkscape:connector-curvature="0" /><path
       d="m 1459.61,594.199 -4.75,-50.929 c 0,0 28.75,-39.168 54.16,-39.168 37.5,0 52.95,51.468 52.95,51.468 l -2.18,40.731"
       style="fill:#fcd0b4;fill-opacity:1;fill-rule:nonzero;stroke:none"
       id="path16"
       inkscape:connector-curvature="0" /><path
       d="m 372.406,642.352 c 0,0 -225.254,-90.102 -258.75,-99.782 C 57.4063,526.32 15.9531,359.191 15.9531,7.42188 l 887.0779,0 c 0,351.76912 -41.453,518.89812 -97.703,535.14812 -33.496,9.68 -258.75,99.782 -258.75,99.782 l -170,0"
       style="fill:#6785cb;fill-opacity:1;fill-rule:nonzero;stroke:none"
       id="path18"
       inkscape:connector-curvature="0" /><path
       d="m 410.707,672.57 c 0,0 -57.215,-10.5 -66.766,-86.25 -6.718,-53.261 -14.55,-182.441 56.836,-464.59 l 120.653,-2.261 c 72.004,283.722 64.152,413.441 57.414,466.851 -9.551,75.75 -66.77,86.25 -66.77,86.25 l -101.367,0"
       style="fill:#ffffff;fill-opacity:1;fill-rule:nonzero;stroke:none"
       id="path20"
       inkscape:connector-curvature="0" /><path
       d="m 428.305,7 c -10.274,36.1289 -19.414,82.6719 -27.528,114.73 l -2.207,13.61 43.809,344.73 -11.203,46.25 -0.184,11.2 30.399,40.05 30.937,-40.75 -0.723,-10.5 -11.199,-46.25 44.766,-341.398 -3.742,-19.203 C 513.461,88.0703 504.516,42.2813 494.477,7"
       style="fill:#5ebbec;fill-opacity:1;fill-rule:nonzero;stroke:none"
       id="path22"
       inkscape:connector-curvature="0" /><path
       d="m 525.063,690.988 c 0,0 2.167,-35.25 1.66,-53.418 0,0 -19.168,-46.25 -65.489,-60 -46.316,13.75 -65.488,60 -65.488,60 0.246,-0.269 -1.922,53.418 -1.922,53.418"
       style="fill:#fcd0b4;fill-opacity:1;fill-rule:nonzero;stroke:none"
       id="path24"
       inkscape:connector-curvature="0" /><path
       d="m 61.9688,1143.02 c -21.25,59.59 -17.2422,93.79 -17.2422,93.79 L 27.8281,1204.5 c -77.5,302.08 86.2499,356.82 86.2499,356.82 0,0 -64.8241,20 -63.0389,83.75 0,0 89.2889,-21.25 187.6169,36.25 91.016,53.23 220.157,89.63 350.84,64.69 117.91,-22.5 140.832,-106.09 140.832,-106.09 0,0 117.098,-16.81 161.25,-142.91 47.5,-135.69 7.5,-266.94 7.5,-266.94 l -12.199,36.06 c 0,0 -2.606,-53.52 -32.82,-124.55 l -12.903,-36.25 -761.6638,-16.66 -17.5234,54.35"
       style="fill:#7b4b4b;fill-opacity:1;fill-rule:nonzero;stroke:none"
       id="path26"
       inkscape:connector-curvature="0" /><path
       d="m 63.6602,1137.78 15.832,-49.11 23.1208,0.51 -38.5349,48.24 c -0.0898,0.02 -0.2734,0.23 -0.4179,0.36 z m 827.9178,359.23 c -44.152,126.1 -161.25,142.91 -161.25,142.91 0,0 -22.922,83.59 -140.832,106.09 -130.683,24.94 -259.824,-11.46 -350.84,-64.69 -98.328,-57.5 -187.6169,-36.25 -187.6169,-36.25 -1.7852,-63.75 63.0389,-83.75 63.0389,-83.75 0,0 -163.7499,-54.74 -86.2499,-356.82 l 2.7539,5.27 c -0.6992,3.12 -1.2617,6.14 -1.5039,8.9 -23.74997,270 124.0859,341.7 124.0859,341.7 0,0 15.602,49.39 113.93,106.89 91.015,53.21 210.058,79.79 341.582,59.72 129.433,-19.75 128.39,-126.18 128.39,-126.18 0,0 122.918,-23.84 167.664,-150.65 -3.359,15.43 -7.636,31.12 -13.152,46.86"
       style="fill:#c79485;fill-opacity:1;fill-rule:nonzero;stroke:none"
       id="path28"
       inkscape:connector-curvature="0" /><path
       d="m 149.078,922.641 c -106.2499,-5 -153.74988,141.589 -116.2499,194.089 27.0508,37.88 81.6919,13.53 91.8989,-7.23"
       style="fill:#fcd0b4;fill-opacity:1;fill-rule:nonzero;stroke:none"
       id="path30"
       inkscape:connector-curvature="0" /><path
       d="m 122.359,1050.41 c 10.028,-28.71 22.946,-71.156 3.305,-78.023 -19.641,-6.856 -43.6835,10.851 -53.7109,39.563 -10.0312,28.7 -2.2461,57.55 17.3946,64.4 19.6563,6.87 22.9803,2.75 33.0113,-25.94"
       style="fill:#de9284;fill-opacity:1;fill-rule:nonzero;stroke:none"
       id="path32"
       inkscape:connector-curvature="0" /><path
       d="m 774.078,922.641 c 106.25,-5 153.75,141.589 116.25,194.089 -27.051,37.88 -81.691,13.53 -91.906,-7.23"
       style="fill:#fcd0b4;fill-opacity:1;fill-rule:nonzero;stroke:none"
       id="path34"
       inkscape:connector-curvature="0" /><path
       d="m 396,709.781 126.973,0 1.379,-48.179 c 0,0 -51.106,-47.512 -131.946,-25.43 l 2.403,24.238 1.191,49.371"
       style="fill:#de9284;fill-opacity:1;fill-rule:nonzero;stroke:none"
       id="path36"
       inkscape:connector-curvature="0" /><path
       d="M 258.52,1449.08 C 131.578,1417.57 125.328,1204.5 125.328,1204.5 c -2.89,-113.57 2.227,-308.773 71.25,-383.109 68.563,-73.832 135,-110 193.75,-127.5 0,0 72.5,-24.172 142.5,0 58.75,17.5 125.184,53.668 193.75,127.5 75.223,81.007 74.559,307.429 70.32,411.279 -1.25,30.76 -18.152,65.94 -25.527,74.71 -107.293,127.69 -106.992,206.63 -106.992,206.63 l -15.098,-18.15 c -27.664,-27.64 -78.601,-55.15 -171.797,-68.85 0,0 33.34,113.32 60,133.32 0,0 -116.66,-148.32 -306.66,-183.32 0,0 5.977,25.71 21.485,59.28 l 6.211,12.79"
       style="fill:#fcd0b4;fill-opacity:1;fill-rule:nonzero;stroke:none"
       id="path38"
       inkscape:connector-curvature="0" /><path
       d="m 365.863,1291.25 c -4.121,-3.46 -15.019,3.39 -30.742,12.96 -15.527,9.4 -37.195,21.27 -57.793,18.29 -20.73,-2.46 -38.543,-19.16 -49.148,-32.36 -11.047,-13.39 -15.2,-23.54 -20.36,-24.01 -2.531,-0.15 -5.359,3.16 -6.48,9.76 -1.125,6.53 -0.445,15.98 3.254,26.65 3.711,10.64 10.312,22.72 21.308,33.8 10.821,10.96 27.032,21.06 46.563,23.52 19.531,2.62 37.773,-3.06 50.859,-10.63 13.34,-7.61 22.746,-16.86 29.512,-25.11 13.398,-16.75 16.855,-29.71 13.027,-32.87"
       style="fill:#231f20;fill-opacity:1;fill-rule:nonzero;stroke:none"
       id="path40"
       inkscape:connector-curvature="0" /><path
       d="m 557.289,1291.25 c -3.828,3.16 -0.371,16.12 13.027,32.87 6.77,8.25 16.172,17.5 29.512,25.11 13.086,7.57 31.328,13.25 50.86,10.63 19.531,-2.46 35.742,-12.56 46.562,-23.52 10.996,-11.08 17.598,-23.16 21.309,-33.8 3.703,-10.67 4.375,-20.12 3.254,-26.65 -1.125,-6.6 -3.958,-9.91 -6.497,-9.76 -5.144,0.47 -9.296,10.62 -20.339,24.01 -10.606,13.2 -28.418,29.9 -49.153,32.36 -20.594,2.98 -42.265,-8.89 -57.793,-18.29 -15.722,-9.57 -26.621,-16.42 -30.742,-12.96"
       style="fill:#231f20;fill-opacity:1;fill-rule:nonzero;stroke:none"
       id="path42"
       inkscape:connector-curvature="0" /><path
       d="m 300.211,1019.12 c 0,-13.71 -30.84,-24.807 -68.879,-24.807 -38.047,0 -68.887,11.097 -68.887,24.807 0,13.69 30.84,24.78 68.887,24.78 38.039,0 68.879,-11.09 68.879,-24.78"
       style="fill:#f7939c;fill-opacity:1;fill-rule:nonzero;stroke:none"
       id="path44"
       inkscape:connector-curvature="0" /><path
       d="m 767.113,1019.12 c 0,-13.71 -30.84,-24.807 -68.886,-24.807 -38.047,0 -68.887,11.097 -68.887,24.807 0,13.69 30.84,24.78 68.887,24.78 38.046,0 68.886,-11.09 68.886,-24.78"
       style="fill:#f7939c;fill-opacity:1;fill-rule:nonzero;stroke:none"
       id="path46"
       inkscape:connector-curvature="0" /><path
       d="m 800.797,1050.41 c -10.031,-28.71 -22.942,-71.156 -3.313,-78.023 19.649,-6.856 43.692,10.851 53.711,39.563 10.039,28.7 2.246,57.55 -17.382,64.4 -19.668,6.87 -22.989,2.75 -33.016,-25.94"
       style="fill:#de9284;fill-opacity:1;fill-rule:nonzero;stroke:none"
       id="path48"
       inkscape:connector-curvature="0" /><path
       d="m 402.055,1576.41 c 0,0 -117.039,-27.59 -165.059,-195.24 l 39.66,7.99 c 0,0 39.285,126.23 125.399,187.25"
       style="fill:#c79485;fill-opacity:1;fill-rule:nonzero;stroke:none"
       id="path50"
       inkscape:connector-curvature="0" /><path
       d="m 567.406,1574.08 c 0,0 -50.281,-10.45 -83.75,-143.75 l 32.922,5.43 c 0,0 11.25,93.32 50.828,138.32"
       style="fill:#c79485;fill-opacity:1;fill-rule:nonzero;stroke:none"
       id="path52"
       inkscape:connector-curvature="0" /><path
       d="m 15.5352,9.92188 c 0,0 5,236.66012 22.5,355.82812 17.5,119.172 63.3318,172.5 63.3318,172.5 0,0 183.961,78.961 253.961,91.461 L 342.66,588.012 c 0,0 -200.742,-51.364 -238.793,-98.93 C 64.082,439.34 44.7031,9.92188 44.7031,9.92188 l -29.1679,0"
       style="fill:#abc2e8;fill-opacity:1;fill-rule:nonzero;stroke:none"
       id="path54"
       inkscape:connector-curvature="0" /><path
       d="m 566.996,630.332 c 0,0 238.32,-85.844 247.5,-90.844 5.156,-2.816 15.352,-13.578 26.992,-35.547 -0.222,0.84 -3.875,-21.679 -4.394,-21.812 -12.578,14.949 -28.406,29.051 -46.766,35.703 -29.738,10.758 -211.777,76.547 -211.777,76.547 l -11.555,35.953"
       style="fill:#abc2e8;fill-opacity:1;fill-rule:nonzero;stroke:none"
       id="path56"
       inkscape:connector-curvature="0" /><path
       d="m 1160.54,9.10156 c 0,0 -23.17,224.42944 -10,344.16044 9.17,83.34 43.32,122.488 43.32,122.488 0,0 190.01,83.34 260.01,95.84 l -4.16,-38.328 c 0,0 -220.12,-62.614 -243.34,-94.16 -55.83,-75.84 -23.33,-429.17231 -23.33,-429.17231 l -22.5,-0.82813"
       style="fill:#fbc6c0;fill-opacity:1;fill-rule:nonzero;stroke:none"
       id="path58"
       inkscape:connector-curvature="0" /><path
       d="m 1561.17,572 c 0,0 238.32,-85.84 247.5,-90.84 5.15,-2.82 21.9,-13.441 33.54,-35.41 -0.22,0.84 5.52,-31.539 5,-31.66 -12.58,14.941 -29.14,36.68 -47.5,43.332 -29.73,10.758 -226.99,78.629 -226.99,78.629 L 1561.17,572"
       style="fill:#fbc6c0;fill-opacity:1;fill-rule:nonzero;stroke:none"
       id="path60"
       inkscape:connector-curvature="0" /><path
       d="m 1459.54,633.691 100.25,0 0.84,-48.781 c 0,0 -12.33,-45.109 -108.05,-41.289 l 3.75,32.367 3.21,57.703"
       style="fill:#da907b;fill-opacity:1;fill-rule:nonzero;stroke:none"
       id="path62"
       inkscape:connector-curvature="0" /><path
       d="m 1508.19,24.9414 c 72.77,290.4566 63.71,457.8476 57.23,512.9106 l -3.45,17.718 c 0,0 -15.45,-51.468 -52.95,-51.468 -25.41,0 -54.16,39.168 -54.16,39.168 l -3.48,-7.93 c -6.66,-57.961 -14.74,-224.828 56.81,-510.3986"
       style="fill:#ffffff;fill-opacity:1;fill-rule:nonzero;stroke:none"
       id="path64"
       inkscape:connector-curvature="0" /><path
       d="m 442.379,486.039 -10.078,50.902 -58.086,-68.222 68.164,17.32"
       style="fill:#c2d0d6;fill-opacity:1;fill-rule:nonzero;stroke:none"
       id="path66"
       inkscape:connector-curvature="0" /><path
       d="m 483.922,486.039 10.078,50.902 58.086,-68.222 -68.164,17.32"
       style="fill:#c2d0d6;fill-opacity:1;fill-rule:nonzero;stroke:none"
       id="path68"
       inkscape:connector-curvature="0" /><path
       d="m 1468.39,454.32 c 0,0 35.98,47.7 41.97,47.969 5.98,0.27 33.46,-47.969 33.46,-47.969 0,0 -28.07,27.11 -75.43,0"
       style="fill:#c2d0d6;fill-opacity:1;fill-rule:nonzero;stroke:none"
       id="path70"
       inkscape:connector-curvature="0" /><path
       d="m 1311.07,889.027 c 0,-15.535 -26.21,-28.144 -58.55,-28.144 -32.33,0 -58.55,12.609 -58.55,28.144 0,15.547 26.22,28.157 58.55,28.157 32.34,0 58.55,-12.61 58.55,-28.157"
       style="fill:#f68b9a;fill-opacity:1;fill-rule:nonzero;stroke:none"
       id="path72"
       inkscape:connector-curvature="0" /><path
       d="m 680.824,1575.33 c 0,0 23.332,-114.99 -203.34,-148.32 0,0 33.34,113.32 60,133.32 0,0 -116.66,-148.32 -306.66,-183.32 0,0 33.332,143.33 146.66,195"
       style="fill:none;stroke:#231f20;stroke-width:14;stroke-linecap:round;stroke-linejoin:round;stroke-miterlimit:10;stroke-dasharray:none;stroke-opacity:1"
       id="path74"
       inkscape:connector-curvature="0" /><path
       d="m 456.156,1033.9 c 0,0 -42.5,-16.67 -38.328,-36.67 4.168,-20 19.168,-42.5 19.168,-42.5"
       style="fill:none;stroke:#231f20;stroke-width:14;stroke-linecap:round;stroke-linejoin:round;stroke-miterlimit:10;stroke-dasharray:none;stroke-opacity:1"
       id="path76"
       inkscape:connector-curvature="0" /><path
       d="m 435.328,1111.4 c 0,0 12.488,-56.67 9.168,-81.67"
       style="fill:none;stroke:#231f20;stroke-width:14;stroke-linecap:round;stroke-linejoin:round;stroke-miterlimit:10;stroke-dasharray:none;stroke-opacity:1"
       id="path78"
       inkscape:connector-curvature="0" /><path
       d="m 149.078,922.641 c -106.2499,-5 -153.74988,141.589 -116.2499,194.089 27.0508,37.88 81.6919,13.53 91.8989,-7.23"
       style="fill:none;stroke:#231f20;stroke-width:14;stroke-linecap:round;stroke-linejoin:round;stroke-miterlimit:10;stroke-dasharray:none;stroke-opacity:1"
       id="path80"
       inkscape:connector-curvature="0" /><path
       d="m 129.121,1043.9 c 0,0 -35.5897,72.81 -75.9218,38.67"
       style="fill:none;stroke:#231f20;stroke-width:14;stroke-linecap:round;stroke-linejoin:round;stroke-miterlimit:10;stroke-dasharray:none;stroke-opacity:1"
       id="path82"
       inkscape:connector-curvature="0" /><path
       d="m 774.078,922.641 c 106.25,-5 153.75,141.589 116.25,194.089 -27.051,37.88 -81.691,13.53 -91.906,-7.23"
       style="fill:none;stroke:#231f20;stroke-width:14;stroke-linecap:round;stroke-linejoin:round;stroke-miterlimit:10;stroke-dasharray:none;stroke-opacity:1"
       id="path84"
       inkscape:connector-curvature="0" /><path
       d="m 794.027,1043.9 c 0,0 35.598,72.81 75.93,38.67"
       style="fill:none;stroke:#231f20;stroke-width:14;stroke-linecap:round;stroke-linejoin:round;stroke-miterlimit:10;stroke-dasharray:none;stroke-opacity:1"
       id="path86"
       inkscape:connector-curvature="0" /><path
       d="m 664.379,1514.01 c 0,0 -0.301,-78.94 106.992,-206.63 7.375,-8.77 24.277,-43.95 25.527,-74.71 4.239,-103.85 4.903,-330.272 -70.32,-411.279 -68.566,-73.832 -135,-110 -193.75,-127.5 -70,-24.172 -142.5,0 -142.5,0 -58.75,17.5 -125.187,53.668 -193.75,127.5 -69.023,74.336 -74.14,269.539 -71.25,383.109 0,0 6.25,213.07 133.192,244.58"
       style="fill:none;stroke:#231f20;stroke-width:14;stroke-linecap:round;stroke-linejoin:round;stroke-miterlimit:10;stroke-dasharray:none;stroke-opacity:1"
       id="path88"
       inkscape:connector-curvature="0" /><path
       d="m 53.7344,1254.61 c -13.8125,-27.65 -25.9063,-50.11 -25.9063,-50.11 -77.5,302.08 86.2499,356.82 86.2499,356.82 0,0 -64.8241,20 -63.0389,83.75 0,0 89.2889,-21.25 187.6169,36.25 91.016,53.23 220.157,89.63 350.84,64.69 117.91,-22.5 140.832,-106.09 140.832,-106.09 0,0 117.098,-16.81 161.25,-142.91 47.5,-135.69 7.5,-266.94 7.5,-266.94 0,0 -10.82,33.52 -24.269,69.47"
       style="fill:none;stroke:#231f20;stroke-width:14;stroke-linecap:round;stroke-linejoin:round;stroke-miterlimit:10;stroke-dasharray:none;stroke-opacity:1"
       id="path90"
       inkscape:connector-curvature="0" /><path
       d="m 44.7266,1236.81 c 0,0 -4.0078,-34.2 17.2422,-93.79"
       style="fill:none;stroke:#231f20;stroke-width:14;stroke-linecap:round;stroke-linejoin:round;stroke-miterlimit:10;stroke-dasharray:none;stroke-opacity:1"
       id="path92"
       inkscape:connector-curvature="0" /><path
       d="m 886.879,1266.13 c 0,0 -2.606,-53.52 -32.82,-124.55"
       style="fill:none;stroke:#231f20;stroke-width:14;stroke-linecap:round;stroke-linejoin:round;stroke-miterlimit:10;stroke-dasharray:none;stroke-opacity:1"
       id="path94"
       inkscape:connector-curvature="0" /><path
       d="m 365.863,1291.25 c -4.121,-3.46 -15.019,3.39 -30.742,12.96 -15.527,9.4 -37.195,21.27 -57.793,18.29 -20.73,-2.46 -38.543,-19.16 -49.148,-32.36 -11.047,-13.39 -15.2,-23.54 -20.36,-24.01 -2.531,-0.15 -5.359,3.16 -6.48,9.76 -1.125,6.53 -0.445,15.98 3.254,26.65 3.711,10.64 10.312,22.72 21.308,33.8 10.821,10.96 27.032,21.06 46.563,23.52 19.531,2.62 37.773,-3.06 50.859,-10.63 13.34,-7.61 22.746,-16.86 29.512,-25.11 13.398,-16.75 16.855,-29.71 13.027,-32.87"
       style="fill:#231f20;fill-opacity:1;fill-rule:nonzero;stroke:none"
       id="path96"
       inkscape:connector-curvature="0" /><path
       d="m 557.289,1291.25 c -3.828,3.16 -0.371,16.12 13.027,32.87 6.77,8.25 16.172,17.5 29.512,25.11 13.086,7.57 31.328,13.25 50.86,10.63 19.531,-2.46 35.742,-12.56 46.562,-23.52 10.996,-11.08 17.598,-23.16 21.309,-33.8 3.703,-10.67 4.375,-20.12 3.254,-26.65 -1.125,-6.6 -3.958,-9.91 -6.497,-9.76 -5.144,0.47 -9.296,10.62 -20.339,24.01 -10.606,13.2 -28.418,29.9 -49.153,32.36 -20.594,2.98 -42.265,-8.89 -57.793,-18.29 -15.722,-9.57 -26.621,-16.42 -30.742,-12.96"
       style="fill:#231f20;fill-opacity:1;fill-rule:nonzero;stroke:none"
       id="path98"
       inkscape:connector-curvature="0" /><path
       d="M 391.734,665.059 C 374.164,655.219 349.867,633.328 343.941,586.32 336.461,527.012 327.594,361.039 428.305,7"
       style="fill:none;stroke:#231f20;stroke-width:14;stroke-linecap:round;stroke-linejoin:round;stroke-miterlimit:10;stroke-dasharray:none;stroke-opacity:1"
       id="path100"
       inkscape:connector-curvature="0" /><path
       d="M 527.68,666.832 C 545.355,657.969 572.523,636.41 578.844,586.32 586.324,527.012 595.191,361.039 494.477,7"
       style="fill:none;stroke:#231f20;stroke-width:14;stroke-linecap:round;stroke-linejoin:round;stroke-miterlimit:10;stroke-dasharray:none;stroke-opacity:1"
       id="path102"
       inkscape:connector-curvature="0" /><path
       d="m 343.629,631.512 -121.172,-88.832 48.914,-87.5 -76.25,-64.602 c 0,0 121.496,-259.348 206.992,-373.7186"
       style="fill:none;stroke:#231f20;stroke-width:12;stroke-linecap:round;stroke-linejoin:round;stroke-miterlimit:10;stroke-dasharray:none;stroke-opacity:1"
       id="path104"
       inkscape:connector-curvature="0" /><path
       d="m 525.934,691.891 c 0,0 0.808,-36.262 3.25,-53.371 0,0 -21.629,-47.2 -67.95,-60.95 -46.316,13.75 -69.746,60.539 -69.746,60.539 1.223,19.973 1.633,53.782 1.633,53.782"
       style="fill:none;stroke:#231f20;stroke-width:14;stroke-linecap:round;stroke-linejoin:round;stroke-miterlimit:10;stroke-dasharray:none;stroke-opacity:1"
       id="path106"
       inkscape:connector-curvature="0" /><path
       d="M 564.234,635.301 C 617.965,613.898 777.555,550.602 805.328,542.57 861.578,526.32 903.031,359.191 903.031,7.42188"
       style="fill:none;stroke:#231f20;stroke-width:14;stroke-linecap:round;stroke-linejoin:round;stroke-miterlimit:10;stroke-dasharray:none;stroke-opacity:1"
       id="path108"
       inkscape:connector-curvature="0" /><path
       d="m 589.203,625 119.16,-82.32 -48.914,-87.5 76.25,-64.602 c 0,0 -136.515,-275.387 -216.672,-377.9882"
       style="fill:none;stroke:#231f20;stroke-width:12;stroke-linecap:round;stroke-linejoin:round;stroke-miterlimit:10;stroke-dasharray:none;stroke-opacity:1"
       id="path110"
       inkscape:connector-curvature="0" /><path
       d="M 431.176,533.031 442.379,480.07 398.57,135.34"
       style="fill:none;stroke:#231f20;stroke-width:12;stroke-linecap:round;stroke-linejoin:round;stroke-miterlimit:10;stroke-dasharray:none;stroke-opacity:1"
       id="path112"
       inkscape:connector-curvature="0" /><path
       d="M 491.605,533.031 480.406,480.07 525.172,138.672"
       style="fill:none;stroke:#231f20;stroke-width:12;stroke-linecap:round;stroke-linejoin:round;stroke-miterlimit:10;stroke-dasharray:none;stroke-opacity:1"
       id="path114"
       inkscape:connector-curvature="0" /><path
       d="M 841.156,503.672 755.328,7"
       style="fill:none;stroke:#231f20;stroke-width:12;stroke-linecap:round;stroke-linejoin:round;stroke-miterlimit:10;stroke-dasharray:none;stroke-opacity:1"
       id="path116"
       inkscape:connector-curvature="0" /><path
       d="m 856.012,327.512 c 0,0 -18.301,-103.821 -73.867,-155.633"
       style="fill:none;stroke:#231f20;stroke-width:10;stroke-linecap:round;stroke-linejoin:round;stroke-miterlimit:10;stroke-dasharray:none;stroke-opacity:1"
       id="path118"
       inkscape:connector-curvature="0" /><path
       d="M 355.23,635.301 C 301.5,613.898 141.91,550.602 114.137,542.57 57.8867,526.32 16.4297,359.191 16.4297,7.42188"
       style="fill:none;stroke:#231f20;stroke-width:14;stroke-linecap:round;stroke-linejoin:round;stroke-miterlimit:10;stroke-dasharray:none;stroke-opacity:1"
       id="path120"
       inkscape:connector-curvature="0" /><path
       d="M 78.3047,503.672 164.137,7"
       style="fill:none;stroke:#231f20;stroke-width:12;stroke-linecap:round;stroke-linejoin:round;stroke-miterlimit:10;stroke-dasharray:none;stroke-opacity:1"
       id="path122"
       inkscape:connector-curvature="0" /><path
       d="m 59.5938,327.512 c 0,0 18.3007,-103.821 73.8672,-155.633"
       style="fill:none;stroke:#231f20;stroke-width:10;stroke-linecap:round;stroke-linejoin:round;stroke-miterlimit:10;stroke-dasharray:none;stroke-opacity:1"
       id="path124"
       inkscape:connector-curvature="0" /><path
       d="M 578.844,586.32 C 574.527,525.07 552.027,458.199 552.027,458.199 L 461.391,577.57 370.758,458.199 c 0,0 -22.5,66.871 -26.817,128.121"
       style="fill:none;stroke:#231f20;stroke-width:12;stroke-linecap:round;stroke-linejoin:round;stroke-miterlimit:10;stroke-dasharray:none;stroke-opacity:1"
       id="path126"
       inkscape:connector-curvature="0" /><path
       d="M 1453.46,573.25 C 1400.91,552.922 1234.99,492.621 1207.83,485 1152.82,469.559 1131.68,324.102 1160,14.1016"
       style="fill:none;stroke:#231f20;stroke-width:14;stroke-linecap:round;stroke-linejoin:round;stroke-miterlimit:10;stroke-dasharray:none;stroke-opacity:1"
       id="path128"
       inkscape:connector-curvature="0" /><path
       d="m 1214.85,399.102 72.5,-385.4028"
       style="fill:none;stroke:#231f20;stroke-width:12;stroke-linecap:round;stroke-linejoin:round;stroke-miterlimit:10;stroke-dasharray:none;stroke-opacity:1"
       id="path130"
       inkscape:connector-curvature="0" /><path
       d="m 1189.67,284.449 c 0,0 17.4,-98.64 70.18,-147.847"
       style="fill:none;stroke:#231f20;stroke-width:10;stroke-linecap:round;stroke-linejoin:round;stroke-miterlimit:10;stroke-dasharray:none;stroke-opacity:1"
       id="path132"
       inkscape:connector-curvature="0" /><path
       d="M 1563.31,571.238 C 1615.85,550.91 1774.7,492.621 1801.87,485 1856.88,469.559 1878.01,324.102 1849.7,14.1016"
       style="fill:none;stroke:#231f20;stroke-width:14;stroke-linecap:round;stroke-linejoin:round;stroke-miterlimit:10;stroke-dasharray:none;stroke-opacity:1"
       id="path134"
       inkscape:connector-curvature="0" /><path
       d="M 1794.85,399.102 1722.35,13.6992"
       style="fill:none;stroke:#231f20;stroke-width:12;stroke-linecap:round;stroke-linejoin:round;stroke-miterlimit:10;stroke-dasharray:none;stroke-opacity:1"
       id="path136"
       inkscape:connector-curvature="0" /><path
       d="m 1820.02,284.449 c 0,0 -17.39,-98.64 -70.17,-147.847"
       style="fill:none;stroke:#231f20;stroke-width:10;stroke-linecap:round;stroke-linejoin:round;stroke-miterlimit:10;stroke-dasharray:none;stroke-opacity:1"
       id="path138"
       inkscape:connector-curvature="0" /><path
       d="m 1609.19,610.762 c 168.75,-19.59 199.59,71.25 199.59,71.25 l 21.66,-86.66 c 58.33,48.339 72.06,257.515 72.06,257.515 l 22.93,187.193 c 29.58,423.75 -192.49,444.79 -192.49,444.79 -46.87,105 -389.37,180 -561.62,-70.84 -108.84,-158.52 -88.9,-380.08 -88.9,-380.08 l 55.06,-191.063 c 0,0 42.2,-155.855 2.58,-229.187 0,0 73.72,14.992 82.05,38.332 0,0 23.31,-48.332 173.31,-38.332"
       style="fill:#85483c;fill-opacity:1;fill-rule:nonzero;stroke:none"
       id="path140"
       inkscape:connector-curvature="0" /><path
       d="m 1732.94,1484.85 c -46.87,105 -389.37,180 -561.62,-70.84 -108.84,-158.52 -88.9,-380.08 -88.9,-380.08 l 34.27,8.42 c 0,0 -19.02,297.26 155.41,425.84 199.69,147.19 384.43,53.06 456.67,18.32 1.67,0 4.17,-1.66 4.17,-1.66"
       style="fill:#e7b39d;fill-opacity:1;fill-rule:nonzero;stroke:none"
       id="path142"
       inkscape:connector-curvature="0" /><path
       d="m 1169.45,1016.74 c 0,0 -20.2,39.18 -58.2,27.31 -79.24,-24.77 -53.83,-196.554 77.12,-211.37"
       style="fill:#fcd0b4;fill-opacity:1;fill-rule:nonzero;stroke:none"
       id="path144"
       inkscape:connector-curvature="0" /><path
       d="m 1845.11,1016.08 c 0,0 20.2,39.19 58.2,27.31 79.24,-24.76 58.19,-196.55 -74.82,-211.374"
       style="fill:#fcd0b4;fill-opacity:1;fill-rule:nonzero;stroke:none"
       id="path146"
       inkscape:connector-curvature="0" /><path
       d="m 1841.02,1057.36 c -9.49,-22.47 -19.13,-36.15 -19.13,-36.15 -31.45,241.66 -291.45,348.64 -291.45,348.64 136.97,-120.42 138.13,-187.71 138.13,-187.71 -231.25,-12.5 -346.93,152.24 -346.93,152.24 0,0 -1.22,-28.63 -16.29,-72.37 -17.8,-51.6 -55.01,-124.2 -132.2,-195.62 -0.13,-1.09 -0.19,-1.71 -0.19,-1.71 -3.92,-65.164 -2.89,-178.426 27.48,-269.325 C 1254.19,634.469 1425.7,598 1507.11,598 c 81.42,0 252.92,36.469 306.67,197.355 28.73,86.008 41.29,193.262 28.08,258.375 -0.24,1.22 -0.59,2.43 -0.84,3.63"
       style="fill:#fcd0b4;fill-opacity:1;fill-rule:nonzero;stroke:none"
       id="path148"
       inkscape:connector-curvature="0" /><path
       d="m 1311.07,889.027 c 0,-15.535 -26.21,-28.144 -58.55,-28.144 -32.33,0 -58.55,12.609 -58.55,28.144 0,15.547 26.22,28.157 58.55,28.157 32.34,0 58.55,-12.61 58.55,-28.157"
       style="fill:#f68b9a;fill-opacity:1;fill-rule:nonzero;stroke:none"
       id="path150"
       inkscape:connector-curvature="0" /><path
       d="m 1820.82,889.027 c 0,-15.535 -26.23,-28.144 -58.56,-28.144 -32.34,0 -58.55,12.609 -58.55,28.144 0,15.547 26.21,28.157 58.55,28.157 32.33,0 58.56,-12.61 58.56,-28.157"
       style="fill:#f68b9a;fill-opacity:1;fill-rule:nonzero;stroke:none"
       id="path152"
       inkscape:connector-curvature="0" /><path
       d="m 1178.78,886.879 -5.84,63.203 c 0,0 -16.42,39.199 -41.66,45.254 -32.5,7.814 -33.16,-44.559 -10.84,-74.121 34.16,-45.274 58.34,-34.336 58.34,-34.336"
       style="fill:#da907b;fill-opacity:1;fill-rule:nonzero;stroke:none"
       id="path154"
       inkscape:connector-curvature="0" /><path
       d="m 1840.44,886.879 5.84,63.203 c 0,0 16.43,39.199 41.66,45.254 32.5,7.814 33.17,-44.559 10.84,-74.121 -34.16,-45.274 -58.34,-34.336 -58.34,-34.336"
       style="fill:#da907b;fill-opacity:1;fill-rule:nonzero;stroke:none"
       id="path156"
       inkscape:connector-curvature="0" /><path
       d="m 1210.32,1431.51 c 109.16,-36.64 181.65,-37.05 222.28,-31.47 27.3,3.75 12.91,13.52 0.48,15.69 -127.91,22.42 -166.07,71.54 -166.07,71.54 l -56.69,-55.76"
       style="fill:#e7b39d;fill-opacity:1;fill-rule:nonzero;stroke:none"
       id="path158"
       inkscape:connector-curvature="0" /><path
       d="m 1407.94,1152.87 c -26.25,20 -92.5,30 -128.75,-13.75"
       style="fill:none;stroke:#231f20;stroke-width:14;stroke-linecap:round;stroke-linejoin:round;stroke-miterlimit:10;stroke-dasharray:none;stroke-opacity:1"
       id="path160"
       inkscape:connector-curvature="0" /><path
       d="m 1169.45,1016.74 c 0,0 -20.2,39.18 -58.2,27.31 -79.24,-24.77 -53.83,-196.554 77.12,-211.37"
       style="fill:none;stroke:#231f20;stroke-width:14;stroke-linecap:round;stroke-linejoin:round;stroke-miterlimit:10;stroke-dasharray:none;stroke-opacity:1"
       id="path162"
       inkscape:connector-curvature="0" /><path
       d="m 1112.67,997.738 c 0,0 26.13,17.812 58.19,-52.246"
       style="fill:none;stroke:#231f20;stroke-width:14;stroke-linecap:round;stroke-linejoin:round;stroke-miterlimit:10;stroke-dasharray:none;stroke-opacity:1"
       id="path164"
       inkscape:connector-curvature="0" /><path
       d="m 1172.96,1064.68 c -3.92,-65.164 -2.89,-178.426 27.48,-269.325 C 1254.19,634.469 1425.7,598 1507.11,598 c 81.42,0 252.92,36.469 306.67,197.355 28.73,86.008 31.22,192.012 28.08,258.375"
       style="fill:none;stroke:#231f20;stroke-width:14;stroke-linecap:round;stroke-linejoin:round;stroke-miterlimit:10;stroke-dasharray:none;stroke-opacity:1"
       id="path166"
       inkscape:connector-curvature="0" /><path
       d="m 1604.19,1152.87 c 26.25,20 92.5,30 128.75,-13.75"
       style="fill:none;stroke:#231f20;stroke-width:14;stroke-linecap:round;stroke-linejoin:round;stroke-miterlimit:10;stroke-dasharray:none;stroke-opacity:1"
       id="path168"
       inkscape:connector-curvature="0" /><path
       d="m 1845.11,1016.08 c 0,0 20.2,39.19 58.2,27.31 79.24,-24.76 58.19,-196.55 -74.82,-211.374"
       style="fill:none;stroke:#231f20;stroke-width:14;stroke-linecap:round;stroke-linejoin:round;stroke-miterlimit:10;stroke-dasharray:none;stroke-opacity:1"
       id="path170"
       inkscape:connector-curvature="0" /><path
       d="m 1901.13,997.074 c 0,0 -26.12,17.816 -58.19,-52.246"
       style="fill:none;stroke:#231f20;stroke-width:14;stroke-linecap:round;stroke-linejoin:round;stroke-miterlimit:10;stroke-dasharray:none;stroke-opacity:1"
       id="path172"
       inkscape:connector-curvature="0" /><path
       d="m 1507.11,842.867 0,20"
       style="fill:none;stroke:#231f20;stroke-width:14;stroke-linecap:round;stroke-linejoin:round;stroke-miterlimit:10;stroke-dasharray:none;stroke-opacity:1"
       id="path174"
       inkscape:connector-curvature="0" /><path
       d="m 1833.78,1236.2 c 63.54,-108.33 -11.89,-214.99 -11.89,-214.99 -31.45,241.66 -291.45,348.64 -291.45,348.64 136.97,-120.42 138.13,-187.71 138.13,-187.71 -231.25,-12.5 -346.93,152.24 -346.93,152.24 0,0 -5.92,-140.04 -154.73,-273.79 0,0 -21.47,93.93 9.78,163.95"
       style="fill:none;stroke:#231f20;stroke-width:14;stroke-linecap:round;stroke-linejoin:round;stroke-miterlimit:10;stroke-dasharray:none;stroke-opacity:1"
       id="path176"
       inkscape:connector-curvature="0" /><path
       d="m 1084.6,1026.33 c 0,0 -22.12,229.16 86.72,387.68 172.25,250.84 514.75,175.84 561.62,70.84 0,0 221.36,-26.87 191.78,-450.62"
       style="fill:none;stroke:#231f20;stroke-width:14;stroke-linecap:round;stroke-linejoin:round;stroke-miterlimit:10;stroke-dasharray:none;stroke-opacity:1"
       id="path178"
       inkscape:connector-curvature="0" /><path
       d="m 1137.48,842.867 c 0,0 42.2,-155.855 2.58,-229.187 0,0 73.72,14.992 82.05,38.332 0,0 23.31,-48.332 173.31,-38.332"
       style="fill:none;stroke:#231f20;stroke-width:14;stroke-linecap:round;stroke-linejoin:round;stroke-miterlimit:10;stroke-dasharray:none;stroke-opacity:1"
       id="path180"
       inkscape:connector-curvature="0" /><path
       d="m 1902.5,852.867 c 0,0 -13.73,-209.176 -72.06,-257.515 l -21.66,86.66 c 0,0 -30.84,-90.84 -199.59,-71.25"
       style="fill:none;stroke:#231f20;stroke-width:14;stroke-linecap:round;stroke-linejoin:round;stroke-miterlimit:10;stroke-dasharray:none;stroke-opacity:1"
       id="path182"
       inkscape:connector-curvature="0" /><path
       d="m 1590.2,559.332 83.82,-96.891 -30.78,-28.711 34.73,-38.421 -145.8,-358.7074"
       style="fill:none;stroke:#231f20;stroke-width:12;stroke-linecap:round;stroke-linejoin:round;stroke-miterlimit:10;stroke-dasharray:none;stroke-opacity:1"
       id="path184"
       inkscape:connector-curvature="0" /><path
       d="m 1429.84,562.441 -84.16,-100 30.78,-28.711 -34.74,-38.421 145.8,-358.7074"
       style="fill:none;stroke:#231f20;stroke-width:12;stroke-linecap:round;stroke-linejoin:round;stroke-miterlimit:10;stroke-dasharray:none;stroke-opacity:1"
       id="path186"
       inkscape:connector-curvature="0" /><path
       d="m 1459.61,594.199 -4.75,-50.929 c 0,0 28.75,-39.168 54.16,-39.168 37.5,0 52.95,51.468 52.95,51.468 l -2.18,40.731"
       style="fill:none;stroke:#231f20;stroke-width:14;stroke-linecap:round;stroke-linejoin:round;stroke-miterlimit:10;stroke-dasharray:none;stroke-opacity:1"
       id="path188"
       inkscape:connector-curvature="0" /><path
       d="m 1454.86,558.672 c 0,0 -37.5,-171.231 53.33,-533.7306"
       style="fill:none;stroke:#231f20;stroke-width:14;stroke-linecap:round;stroke-linejoin:round;stroke-miterlimit:10;stroke-dasharray:none;stroke-opacity:1"
       id="path190"
       inkscape:connector-curvature="0" /><path
       d="m 1562.36,558.262 c 0,0 36.66,-170.821 -54.17,-533.3206"
       style="fill:none;stroke:#231f20;stroke-width:14;stroke-linecap:round;stroke-linejoin:round;stroke-miterlimit:10;stroke-dasharray:none;stroke-opacity:1"
       id="path192"
       inkscape:connector-curvature="0" /><path
       d="m 1449.85,431.602 59.17,72.5 59.58,-80"
       style="fill:none;stroke:#231f20;stroke-width:12;stroke-linecap:round;stroke-linejoin:round;stroke-miterlimit:10;stroke-dasharray:none;stroke-opacity:1"
       id="path194"
       inkscape:connector-curvature="0" /><path
       d="m 462.836,749.578 c -69.168,0 -129.168,165.008 -129.168,165.008 26.668,-12.5 85.828,-21.66 128.328,-21.66 l -0.828,0 c 42.5,0 101.668,9.16 128.328,21.66 0,0 -60,-165.008 -129.16,-165.008 l 2.5,0"
       style="fill:#ed5d84;fill-opacity:1;fill-rule:nonzero;stroke:none"
       id="path196"
       inkscape:connector-curvature="0" /><path
       d="m 365.961,843.578 c 26.172,14.465 57.852,22.969 92.031,22.969 36.621,0 70.293,-9.832 97.473,-26.219 20.957,38.328 34.031,74.258 34.031,74.258 -26.57,-12.461 -85.449,-21.594 -127.91,-21.652 -42.469,0.058 -101.336,9.191 -127.918,21.652 0,0 12.363,-33.926 32.293,-71.008"
       style="fill:#d54851;fill-opacity:1;fill-rule:nonzero;stroke:none"
       id="path198"
       inkscape:connector-curvature="0" /><path
       d="m 382.836,1118.53 c -3.094,38.35 -27.508,100 -60.84,100 -29.961,0 -59.258,-42.42 -77.578,-104.27"
       style="fill:none;stroke:#231f20;stroke-width:18;stroke-linecap:round;stroke-linejoin:round;stroke-miterlimit:10;stroke-dasharray:none;stroke-opacity:1"
       id="path200"
       inkscape:connector-curvature="0" /><path
       d="m 250.121,1139.07 -22.312,9.8"
       style="fill:none;stroke:#231f20;stroke-width:14;stroke-linecap:round;stroke-linejoin:round;stroke-miterlimit:10;stroke-dasharray:none;stroke-opacity:1"
       id="path202"
       inkscape:connector-curvature="0" /><path
       d="m 540.336,1118.53 c 3.098,38.35 27.512,100 60.84,100 29.961,0 59.258,-42.42 77.578,-104.27"
       style="fill:none;stroke:#231f20;stroke-width:18;stroke-linecap:round;stroke-linejoin:round;stroke-miterlimit:10;stroke-dasharray:none;stroke-opacity:1"
       id="path204"
       inkscape:connector-curvature="0" /><path
       d="m 673.051,1139.07 22.316,9.8"
       style="fill:none;stroke:#231f20;stroke-width:14;stroke-linecap:round;stroke-linejoin:round;stroke-miterlimit:10;stroke-dasharray:none;stroke-opacity:1"
       id="path206"
       inkscape:connector-curvature="0" /><path
       d="m 462.836,749.578 c -69.168,0 -129.168,165.008 -129.168,165.008 26.668,-12.5 85.828,-21.66 128.328,-21.66 l -0.828,0 c 42.5,0 101.668,9.16 128.328,21.66 0,0 -60,-165.008 -129.16,-165.008 l 2.5,0 z"
       style="fill:none;stroke:#231f20;stroke-width:14;stroke-linecap:round;stroke-linejoin:round;stroke-miterlimit:10;stroke-dasharray:none;stroke-opacity:1"
       id="path208"
       inkscape:connector-curvature="0" /><path
       d="m 1433.58,965.621 c -8.51,36.059 -29.84,77.489 -57.17,77.489 -28.27,0 -55.94,-37.76 -74.37,-93.973"
       style="fill:none;stroke:#231f20;stroke-width:18;stroke-linecap:round;stroke-linejoin:round;stroke-miterlimit:10;stroke-dasharray:none;stroke-opacity:1"
       id="path210"
       inkscape:connector-curvature="0" /><path
       d="m 1302.81,973.656 -34.16,15"
       style="fill:none;stroke:#231f20;stroke-width:14;stroke-linecap:round;stroke-linejoin:round;stroke-miterlimit:10;stroke-dasharray:none;stroke-opacity:1"
       id="path212"
       inkscape:connector-curvature="0" /><path
       d="m 1583.74,965.621 c 8.5,36.059 29.84,77.489 57.16,77.489 28.27,0 55.94,-37.76 74.38,-93.973"
       style="fill:none;stroke:#231f20;stroke-width:18;stroke-linecap:round;stroke-linejoin:round;stroke-miterlimit:10;stroke-dasharray:none;stroke-opacity:1"
       id="path214"
       inkscape:connector-curvature="0" /><path
       d="m 1714.51,973.656 34.16,15"
       style="fill:none;stroke:#231f20;stroke-width:14;stroke-linecap:round;stroke-linejoin:round;stroke-miterlimit:10;stroke-dasharray:none;stroke-opacity:1"
       id="path216"
       inkscape:connector-curvature="0" /><path
       d="m 1512.41,659.93 c -94.96,0 -101.74,122.496 -102.87,149.996 0,0 100.97,-35 201.97,0 -1.13,-27.5 -7.91,-149.996 -102.87,-149.996"
       style="fill:#ed5f70;fill-opacity:1;fill-rule:nonzero;stroke:none"
       id="path218"
       inkscape:connector-curvature="0" /><path
       d="m 1504.65,768.258 c 35.73,0 67.64,-18.449 88.99,-47.43 15.13,35.024 17.28,74.832 17.87,89.098 -101,-35 -201.97,0 -201.97,0 0.52,-12.957 2.32,-47.02 14.01,-79.426 20.96,23.328 49.53,37.758 81.1,37.758"
       style="fill:#d54851;fill-opacity:1;fill-rule:nonzero;stroke:none"
       id="path220"
       inkscape:connector-curvature="0" /><path
       d="m 1512.41,659.93 c -94.96,0 -101.74,122.496 -102.87,149.996 0,0 100.97,-35 201.97,0 -1.13,-27.5 -7.91,-149.996 -102.87,-149.996"
       style="fill:none;stroke:#231f20;stroke-width:14;stroke-linecap:round;stroke-linejoin:round;stroke-miterlimit:10;stroke-dasharray:none;stroke-opacity:1"
       id="path222"
       inkscape:connector-curvature="0" /></g></svg>