<?xml version="1.0" encoding="UTF-8" standalone="no"?>
<!-- Created with Inkscape (http://www.inkscape.org/) -->

<svg
   xmlns:dc="http://purl.org/dc/elements/1.1/"
   xmlns:cc="http://creativecommons.org/ns#"
   xmlns:rdf="http://www.w3.org/1999/02/22-rdf-syntax-ns#"
   xmlns:svg="http://www.w3.org/2000/svg"
   xmlns="http://www.w3.org/2000/svg"
   xmlns:sodipodi="http://sodipodi.sourceforge.net/DTD/sodipodi-0.dtd"
   xmlns:inkscape="http://www.inkscape.org/namespaces/inkscape"
   id="svg2"
   version="1.1"
   inkscape:version="0.91 r13725"
   xml:space="preserve"
   width="958.88208"
   height="810"
   viewBox="0 0 958.8821 810"
   sodipodi:docname="publicdomainq-business-man-and-woman-with-documents.svg"
   inkscape:export-filename="/media/sdb1/_GRAFIKA/Publicdomainq/lidi/publicdomainq-business-man-and-woman-with-documents.png"
   inkscape:export-xdpi="88.930695"
   inkscape:export-ydpi="88.930695"><title
     id="title7771">Business man and woman with documents</title><metadata
     id="metadata8"><rdf:RDF><cc:Work
         rdf:about=""><dc:format>image/svg+xml</dc:format><dc:type
           rdf:resource="http://purl.org/dc/dcmitype/StillImage" /><dc:title>Business man and woman with documents</dc:title><cc:license
           rdf:resource="http://creativecommons.org/publicdomain/zero/1.0/" /><dc:subject><rdf:Bag><rdf:li>man</rdf:li><rdf:li>woman</rdf:li><rdf:li>male</rdf:li><rdf:li>female</rdf:li><rdf:li>work</rdf:li><rdf:li>office</rdf:li><rdf:li>smile</rdf:li><rdf:li>document</rdf:li><rdf:li>folder</rdf:li><rdf:li>paper</rdf:li><rdf:li>suit</rdf:li><rdf:li>tie</rdf:li><rdf:li>publicdomainq.net</rdf:li></rdf:Bag></dc:subject><dc:description>This image was adapted from a picture posted to publicdomainq.net. All of the images on these sites are in the public domain i.e. CC0. This site is only in Japanese but can be easily navigated with Google Translate.</dc:description></cc:Work><cc:License
         rdf:about="http://creativecommons.org/publicdomain/zero/1.0/"><cc:permits
           rdf:resource="http://creativecommons.org/ns#Reproduction" /><cc:permits
           rdf:resource="http://creativecommons.org/ns#Distribution" /><cc:permits
           rdf:resource="http://creativecommons.org/ns#DerivativeWorks" /></cc:License></rdf:RDF></metadata><defs
     id="defs6" /><sodipodi:namedview
     pagecolor="#ffffff"
     bordercolor="#666666"
     borderopacity="1"
     objecttolerance="10"
     gridtolerance="10"
     guidetolerance="10"
     inkscape:pageopacity="0"
     inkscape:pageshadow="2"
     inkscape:window-width="1920"
     inkscape:window-height="1125"
     id="namedview4"
     showgrid="false"
     inkscape:zoom="0.74237518"
     inkscape:cx="718.48635"
     inkscape:cy="383.42662"
     inkscape:window-x="0"
     inkscape:window-y="0"
     inkscape:window-maximized="1"
     inkscape:current-layer="svg2"
     fit-margin-top="5"
     fit-margin-left="5"
     fit-margin-bottom="5"
     fit-margin-right="5" /><g
     id="g12"
     transform="matrix(0.42438448,0,0,-0.42438448,4.9839459,805.00012)"><path
       d="m 372.406,766.379 c 0,0 -225.254,-90.098 -258.75,-99.777 -56.2497,-16.25 -97.7029,-187 -97.7029,-647.1137 l 720.0589,0 c 0,0 125.566,630.8637 69.316,647.1137 -33.496,9.679 -258.75,99.777 -258.75,99.777 l -170,0"
       style="fill:#4f4c4c;fill-opacity:1;fill-rule:nonzero;stroke:none"
       id="path14"
       inkscape:connector-curvature="0" /><path
       d="m 410.707,796.602 c 0,0 -57.215,-10.5 -66.766,-86.25 -6.718,-53.262 5.821,-184.602 56.836,-464.59 L 521.43,243.5 c 49.172,269.332 64.152,413.441 57.414,466.852 -9.551,75.75 -66.77,86.25 -66.77,86.25 l -101.367,0"
       style="fill:#ffffff;fill-opacity:1;fill-rule:nonzero;stroke:none"
       id="path16"
       inkscape:connector-curvature="0" /><path
       d="m 400.777,245.762 -2.207,13.609 43.809,344.731 -11.203,46.25 -0.184,11.199 30.399,40.051 30.937,-40.75 -0.723,-10.5 -11.199,-46.25 44.766,-341.403 -3.742,-19.199 c -7.735,-30.48 -60,-206.8281 -60,-206.8281 0,0 -52.539,177.0271 -60.653,209.0901"
       style="fill:#538cc5;fill-opacity:1;fill-rule:nonzero;stroke:none"
       id="path18"
       inkscape:connector-curvature="0" /><path
       d="m 525.063,815.02 c 0,0 2.167,-35.25 1.66,-53.418 0,0 -19.168,-46.25 -65.489,-60 -46.316,13.75 -65.488,60 -65.488,60 0.246,-0.27 -1.922,53.418 -1.922,53.418"
       style="fill:#fcd0b4;fill-opacity:1;fill-rule:nonzero;stroke:none"
       id="path20"
       inkscape:connector-curvature="0" /><path
       d="m 61.9688,1267.05 c -21.25,59.59 -17.2461,93.79 -17.2461,93.79 l -16.8946,-32.31 c -77.5,302.08 86.2499,356.82 86.2499,356.82 0,0 -64.8241,20 -63.0389,83.75 0,0 89.2889,-21.25 187.6169,36.25 91.016,53.22 220.157,89.63 350.84,64.69 117.91,-22.5 140.832,-106.09 140.832,-106.09 0,0 117.098,-16.81 161.25,-142.91 47.5,-135.69 7.5,-266.94 7.5,-266.94 l -12.199,36.06 c 0,0 -2.606,-53.52 -32.82,-124.55 l -12.903,-36.25 -761.6677,-16.66 -17.5195,54.35"
       style="fill:#7b4b4b;fill-opacity:1;fill-rule:nonzero;stroke:none"
       id="path22"
       inkscape:connector-curvature="0" /><path
       d="m 63.668,1261.81 15.8203,-49.11 23.1247,0.51 -38.5349,48.24 c -0.0898,0.01 -0.2734,0.23 -0.4101,0.36 z m 827.91,359.23 c -44.152,126.1 -161.25,142.91 -161.25,142.91 0,0 -22.922,83.59 -140.832,106.09 -130.683,24.94 -259.824,-11.47 -350.84,-64.69 -98.328,-57.5 -187.6169,-36.25 -187.6169,-36.25 -1.7852,-63.75 63.0389,-83.75 63.0389,-83.75 0,0 -163.7499,-54.74 -86.2499,-356.82 l 2.7539,5.27 c -0.7031,3.13 -1.2617,6.14 -1.5039,8.9 -23.74997,270 124.0819,341.69 124.0819,341.69 0,0 15.606,49.4 113.934,106.9 91.015,53.21 210.058,79.78 341.582,59.72 129.433,-19.75 128.39,-126.19 128.39,-126.19 0,0 122.918,-23.83 167.664,-150.64 -3.359,15.43 -7.636,31.12 -13.152,46.86"
       style="fill:#c79485;fill-opacity:1;fill-rule:nonzero;stroke:none"
       id="path24"
       inkscape:connector-curvature="0" /><path
       d="m 149.078,1046.67 c -106.2499,-5 -153.74988,141.59 -116.2499,194.09 27.0508,37.87 81.6989,13.53 91.8949,-7.23"
       style="fill:#fcd0b4;fill-opacity:1;fill-rule:nonzero;stroke:none"
       id="path26"
       inkscape:connector-curvature="0" /><path
       d="m 122.359,1174.43 c 10.028,-28.71 22.95,-71.15 3.301,-78.01 -19.629,-6.86 -43.6717,10.85 -53.7108,39.56 -10.0195,28.7 -2.2461,57.55 17.4024,64.4 19.6484,6.87 22.9764,2.75 33.0074,-25.95"
       style="fill:#de9284;fill-opacity:1;fill-rule:nonzero;stroke:none"
       id="path28"
       inkscape:connector-curvature="0" /><path
       d="m 774.078,1046.67 c 106.25,-5 153.75,141.59 116.25,194.09 -27.051,37.87 -81.691,13.53 -91.906,-7.23"
       style="fill:#fcd0b4;fill-opacity:1;fill-rule:nonzero;stroke:none"
       id="path30"
       inkscape:connector-curvature="0" /><path
       d="m 396,833.809 126.973,0 1.379,-48.18 c 0,0 -51.106,-47.508 -131.946,-25.43 l 2.403,24.242 1.191,49.368"
       style="fill:#de9284;fill-opacity:1;fill-rule:nonzero;stroke:none"
       id="path32"
       inkscape:connector-curvature="0" /><path
       d="M 258.52,1573.11 C 131.578,1541.6 125.328,1328.53 125.328,1328.53 c -2.89,-113.57 2.227,-308.77 71.25,-383.108 68.563,-73.832 135,-110 193.75,-127.5 0,0 72.5,-24.172 142.5,0 58.75,17.5 125.184,53.668 193.75,127.5 75.223,81.008 74.559,307.428 70.32,411.278 -1.25,30.76 -18.152,65.94 -25.527,74.71 -107.293,127.69 -106.992,206.63 -106.992,206.63 l -15.098,-18.16 c -27.664,-27.63 -78.601,-55.14 -171.797,-68.84 0,0 33.34,113.32 60,133.32 0,0 -116.66,-148.32 -306.66,-183.32 0,0 5.977,25.71 21.485,59.28 l 6.211,12.79"
       style="fill:#fcd0b4;fill-opacity:1;fill-rule:nonzero;stroke:none"
       id="path34"
       inkscape:connector-curvature="0" /><path
       d="m 365.863,1415.29 c -4.121,-3.47 -15.019,3.39 -30.742,12.96 -15.527,9.39 -37.195,21.26 -57.793,18.27 -20.73,-2.45 -38.543,-19.14 -49.148,-32.35 -11.047,-13.39 -15.196,-23.54 -20.352,-24.01 -2.539,-0.15 -5.371,3.16 -6.484,9.77 -1.133,6.52 -0.449,15.97 3.25,26.63 3.711,10.65 10.312,22.73 21.308,33.82 10.821,10.95 27.032,21.05 46.563,23.51 19.531,2.62 37.773,-3.06 50.859,-10.63 13.34,-7.62 22.746,-16.86 29.512,-25.12 13.398,-16.74 16.855,-29.7 13.027,-32.85"
       style="fill:#231f20;fill-opacity:1;fill-rule:nonzero;stroke:none"
       id="path36"
       inkscape:connector-curvature="0" /><path
       d="m 557.289,1415.29 c -3.828,3.15 -0.371,16.11 13.027,32.85 6.77,8.26 16.172,17.5 29.512,25.12 13.086,7.57 31.328,13.25 50.86,10.63 19.531,-2.46 35.742,-12.56 46.562,-23.51 10.996,-11.09 17.598,-23.17 21.309,-33.82 3.703,-10.66 4.375,-20.11 3.254,-26.63 -1.125,-6.61 -3.958,-9.92 -6.497,-9.77 -5.144,0.47 -9.296,10.62 -20.339,24.01 -10.606,13.21 -28.418,29.9 -49.153,32.35 -20.594,2.99 -42.265,-8.88 -57.793,-18.27 -15.722,-9.57 -26.621,-16.43 -30.742,-12.96"
       style="fill:#231f20;fill-opacity:1;fill-rule:nonzero;stroke:none"
       id="path38"
       inkscape:connector-curvature="0" /><path
       d="m 300.211,1143.14 c 0,-13.69 -30.84,-24.8 -68.879,-24.8 -38.047,0 -68.887,11.11 -68.887,24.8 0,13.7 30.84,24.79 68.887,24.79 38.039,0 68.879,-11.09 68.879,-24.79"
       style="fill:#f7939c;fill-opacity:1;fill-rule:nonzero;stroke:none"
       id="path40"
       inkscape:connector-curvature="0" /><path
       d="m 767.113,1143.14 c 0,-13.69 -30.84,-24.8 -68.886,-24.8 -38.047,0 -68.887,11.11 -68.887,24.8 0,13.7 30.84,24.79 68.887,24.79 38.046,0 68.886,-11.09 68.886,-24.79"
       style="fill:#f7939c;fill-opacity:1;fill-rule:nonzero;stroke:none"
       id="path42"
       inkscape:connector-curvature="0" /><path
       d="m 800.797,1174.43 c -10.031,-28.71 -22.942,-71.15 -3.313,-78.01 19.649,-6.86 43.692,10.85 53.711,39.56 10.039,28.7 2.246,57.55 -17.382,64.4 -19.668,6.87 -22.989,2.75 -33.016,-25.95"
       style="fill:#de9284;fill-opacity:1;fill-rule:nonzero;stroke:none"
       id="path44"
       inkscape:connector-curvature="0" /><path
       d="m 402.055,1700.44 c 0,0 -117.039,-27.59 -165.059,-195.24 l 39.66,7.98 c 0,0 39.285,126.24 125.399,187.26"
       style="fill:#c79485;fill-opacity:1;fill-rule:nonzero;stroke:none"
       id="path46"
       inkscape:connector-curvature="0" /><path
       d="m 567.406,1698.11 c 0,0 -50.281,-10.45 -83.75,-143.75 l 32.922,5.43 c 0,0 11.25,93.32 50.828,138.32"
       style="fill:#c79485;fill-opacity:1;fill-rule:nonzero;stroke:none"
       id="path48"
       inkscape:connector-curvature="0" /><path
       d="m 13.1016,19.4883 c 0,0 7.4414,351.1207 24.9414,470.2927 17.5,119.168 63.32,172.5 63.32,172.5 0,0 183.965,78.957 253.965,91.457 L 342.66,712.039 c 0,0 -200.742,-51.359 -238.797,-98.93 C 64.0781,563.371 42.2617,19.4883 42.2617,19.4883 l -29.1601,0"
       style="fill:#a7a5a6;fill-opacity:1;fill-rule:nonzero;stroke:none"
       id="path50"
       inkscape:connector-curvature="0" /><path
       d="m 566.996,754.359 c 0,0 238.32,-85.839 247.5,-90.839 5.156,-2.821 15.352,-13.579 26.992,-35.551 -0.222,0.84 -3.875,-21.68 -4.394,-21.809 -12.578,14.949 -28.406,29.051 -46.766,35.699 -29.738,10.762 -211.777,76.551 -211.777,76.551 l -11.555,35.949"
       style="fill:#a7a5a6;fill-opacity:1;fill-rule:nonzero;stroke:none"
       id="path52"
       inkscape:connector-curvature="0" /><path
       d="m 627.789,1047.32 c -22.637,-35.16 -74.68,-97.965 -165.168,-97.965 -90.488,0 -142.539,62.805 -165.176,97.965"
       style="fill:none;stroke:#231f20;stroke-width:16;stroke-linecap:round;stroke-linejoin:round;stroke-miterlimit:10;stroke-dasharray:none;stroke-opacity:1"
       id="path54"
       inkscape:connector-curvature="0" /><path
       d="m 442.379,610.07 -10.078,50.899 -58.086,-68.219 68.164,17.32"
       style="fill:#c2d0d6;fill-opacity:1;fill-rule:nonzero;stroke:none"
       id="path56"
       inkscape:connector-curvature="0" /><path
       d="M 483.922,610.07 494,660.969 552.086,592.75 483.922,610.07"
       style="fill:#c2d0d6;fill-opacity:1;fill-rule:nonzero;stroke:none"
       id="path58"
       inkscape:connector-curvature="0" /><path
       d="m 1870.61,239.512 c 0,0 87.75,32.867 89.98,99.949 4.64,139.348 -8.43,206.371 -45.57,216.789 -27.16,7.629 -186.01,65.922 -238.56,86.238 l -113.59,0.66 C 1510.32,622.82 1348.14,563.879 1320.98,556.25 1265.97,540.809 1244.84,334.488 1271.49,19.4883 l 562.46,0 36.66,220.0237"
       style="fill:#4f4c4c;fill-opacity:1;fill-rule:nonzero;stroke:none"
       id="path60"
       inkscape:connector-curvature="0" /><path
       d="m 1572.77,665.461 -4.76,-50.941 c 0,0 28.75,-39.168 54.16,-39.168 37.5,0 52.95,51.48 52.95,51.48 l -2.18,40.727"
       style="fill:#fcd0b4;fill-opacity:1;fill-rule:nonzero;stroke:none"
       id="path62"
       inkscape:connector-curvature="0" /><path
       d="m 1273.7,19.4883 c 0,0 -23.18,285.3007 -10,405.0237 9.17,83.34 43.32,122.488 43.32,122.488 0,0 190.01,83.34 260.01,95.84 l -4.16,-38.328 c 0,0 -220.12,-62.602 -243.34,-94.16 C 1263.7,434.512 1296.2,19.4883 1296.2,19.4883 l -22.5,0"
       style="fill:#a7a5a6;fill-opacity:1;fill-rule:nonzero;stroke:none"
       id="path64"
       inkscape:connector-curvature="0" /><path
       d="m 1674.32,643.25 c 0,0 238.32,-85.84 247.5,-90.84 5.16,-2.808 21.91,-13.43 33.55,-35.41 -0.23,0.84 5.51,-31.531 5,-31.66 -12.58,14.941 -29.14,36.68 -47.5,43.332 -29.74,10.769 -227,78.637 -227,78.637 l -11.55,35.941"
       style="fill:#a7a5a6;fill-opacity:1;fill-rule:nonzero;stroke:none"
       id="path66"
       inkscape:connector-curvature="0" /><path
       d="m 1572.69,704.941 100.25,0 0.84,-48.781 c 0,0 -12.33,-45.101 -108.04,-41.289 l 3.75,32.379 3.2,57.691"
       style="fill:#da907b;fill-opacity:1;fill-rule:nonzero;stroke:none"
       id="path68"
       inkscape:connector-curvature="0" /><path
       d="m 1621.34,96.1914 c 72.78,290.4566 63.71,457.8476 57.23,512.9106 l -3.45,17.73 c 0,0 -15.45,-51.48 -52.95,-51.48 -25.41,0 -54.16,39.168 -54.16,39.168 l -3.47,-7.93 c -6.66,-57.961 -14.75,-224.82 56.8,-510.3986"
       style="fill:#ffffff;fill-opacity:1;fill-rule:nonzero;stroke:none"
       id="path70"
       inkscape:connector-curvature="0" /><path
       d="m 1581.55,525.582 c 0,0 35.97,47.688 41.96,47.969 5.99,0.269 33.47,-47.969 33.47,-47.969 0,0 -28.08,27.109 -75.43,0"
       style="fill:#c2d0d6;fill-opacity:1;fill-rule:nonzero;stroke:none"
       id="path72"
       inkscape:connector-curvature="0" /><path
       d="m 365.699,1266.64 c 0,-45.45 -28.242,-82.29 -63.078,-82.29 -34.844,0 -63.105,36.84 -63.105,82.29 0,45.45 28.261,82.29 63.105,82.29 34.836,0 63.078,-36.84 63.078,-82.29"
       style="fill:#ffffff;fill-opacity:1;fill-rule:nonzero;stroke:none"
       id="path74"
       inkscape:connector-curvature="0" /><path
       d="m 355.863,1254.76 c 0,-30.96 -17.422,-56.06 -38.894,-56.06 -21.485,0 -38.899,25.1 -38.899,56.06 0,30.96 17.414,56.06 38.899,56.06 21.472,0 38.894,-25.1 38.894,-56.06"
       style="fill:#231f20;fill-opacity:1;fill-rule:nonzero;stroke:none"
       id="path76"
       inkscape:connector-curvature="0" /><path
       d="m 355.18,1273.53 c 0,-6.34 -5.137,-11.49 -11.485,-11.49 -6.347,0 -11.504,5.15 -11.504,11.49 0,6.35 5.157,11.49 11.504,11.49 6.348,0 11.485,-5.14 11.485,-11.49"
       style="fill:#ffffff;fill-opacity:1;fill-rule:nonzero;stroke:none"
       id="path78"
       inkscape:connector-curvature="0" /><path
       d="m 308.805,1321.56 c 15.957,0 31.172,-2.88 45.215,-7.99 -12.618,18.39 -30.899,30.02 -51.29,30.02 -23.046,0 -43.378,-14.8 -55.898,-37.44 18.262,9.75 39.395,15.41 61.973,15.41"
       style="fill:#d8e5f6;fill-opacity:1;fill-rule:nonzero;stroke:none"
       id="path80"
       inkscape:connector-curvature="0" /><path
       d="m 358.793,1314.34 c -24.238,51.13 -119.355,55.62 -122.977,-45.18"
       style="fill:none;stroke:#231f20;stroke-width:16;stroke-linecap:round;stroke-linejoin:round;stroke-miterlimit:10;stroke-dasharray:none;stroke-opacity:1"
       id="path82"
       inkscape:connector-curvature="0" /><path
       d="m 555.375,1266.64 c 0,-45.45 28.242,-82.29 63.078,-82.29 34.844,0 63.106,36.84 63.106,82.29 0,45.45 -28.262,82.29 -63.106,82.29 -34.836,0 -63.078,-36.84 -63.078,-82.29"
       style="fill:#ffffff;fill-opacity:1;fill-rule:nonzero;stroke:none"
       id="path84"
       inkscape:connector-curvature="0" /><path
       d="m 565.211,1254.76 c 0,-30.96 17.422,-56.06 38.894,-56.06 21.485,0 38.899,25.1 38.899,56.06 0,30.96 -17.414,56.06 -38.899,56.06 -21.472,0 -38.894,-25.1 -38.894,-56.06"
       style="fill:#231f20;fill-opacity:1;fill-rule:nonzero;stroke:none"
       id="path86"
       inkscape:connector-curvature="0" /><path
       d="m 619.223,1273.53 c 0,-6.34 5.136,-11.49 11.484,-11.49 6.348,0 11.504,5.15 11.504,11.49 0,6.35 -5.156,11.49 -11.504,11.49 -6.348,0 -11.484,-5.14 -11.484,-11.49"
       style="fill:#ffffff;fill-opacity:1;fill-rule:nonzero;stroke:none"
       id="path88"
       inkscape:connector-curvature="0" /><path
       d="m 611.441,1321.56 c -15.957,0 -31.171,-2.88 -45.214,-7.99 12.617,18.39 30.898,30.02 51.289,30.02 23.047,0 43.379,-14.8 55.898,-37.44 -18.262,9.75 -39.394,15.41 -61.973,15.41"
       style="fill:#d8e5f6;fill-opacity:1;fill-rule:nonzero;stroke:none"
       id="path90"
       inkscape:connector-curvature="0" /><path
       d="m 562.281,1314.34 c 24.239,51.13 119.356,55.62 122.977,-45.18"
       style="fill:none;stroke:#231f20;stroke-width:16;stroke-linecap:round;stroke-linejoin:round;stroke-miterlimit:10;stroke-dasharray:none;stroke-opacity:1"
       id="path92"
       inkscape:connector-curvature="0" /><path
       d="m 680.824,1699.36 c 0,0 23.332,-114.99 -203.34,-148.32 0,0 33.34,113.32 60,133.32 0,0 -116.66,-148.32 -306.66,-183.32 0,0 33.332,143.33 146.66,195"
       style="fill:none;stroke:#231f20;stroke-width:14;stroke-linecap:round;stroke-linejoin:round;stroke-miterlimit:10;stroke-dasharray:none;stroke-opacity:1"
       id="path94"
       inkscape:connector-curvature="0" /><path
       d="m 456.156,1157.93 c 0,0 -42.5,-16.67 -38.328,-36.67 4.168,-20 19.168,-42.5 19.168,-42.5"
       style="fill:none;stroke:#231f20;stroke-width:14;stroke-linecap:round;stroke-linejoin:round;stroke-miterlimit:10;stroke-dasharray:none;stroke-opacity:1"
       id="path96"
       inkscape:connector-curvature="0" /><path
       d="m 435.328,1235.43 c 0,0 12.488,-56.67 9.168,-81.67"
       style="fill:none;stroke:#231f20;stroke-width:14;stroke-linecap:round;stroke-linejoin:round;stroke-miterlimit:10;stroke-dasharray:none;stroke-opacity:1"
       id="path98"
       inkscape:connector-curvature="0" /><path
       d="m 149.078,1046.67 c -106.2499,-5 -153.74988,141.59 -116.2499,194.09 27.0508,37.87 81.6989,13.53 91.8949,-7.23"
       style="fill:none;stroke:#231f20;stroke-width:14;stroke-linecap:round;stroke-linejoin:round;stroke-miterlimit:10;stroke-dasharray:none;stroke-opacity:1"
       id="path100"
       inkscape:connector-curvature="0" /><path
       d="m 129.117,1167.93 c 0,0 -35.5857,72.81 -75.9178,38.67"
       style="fill:none;stroke:#231f20;stroke-width:14;stroke-linecap:round;stroke-linejoin:round;stroke-miterlimit:10;stroke-dasharray:none;stroke-opacity:1"
       id="path102"
       inkscape:connector-curvature="0" /><path
       d="m 774.078,1046.67 c 106.25,-5 153.75,141.59 116.25,194.09 -27.051,37.87 -81.691,13.53 -91.906,-7.23"
       style="fill:none;stroke:#231f20;stroke-width:14;stroke-linecap:round;stroke-linejoin:round;stroke-miterlimit:10;stroke-dasharray:none;stroke-opacity:1"
       id="path104"
       inkscape:connector-curvature="0" /><path
       d="m 794.027,1167.93 c 0,0 35.598,72.81 75.93,38.67"
       style="fill:none;stroke:#231f20;stroke-width:14;stroke-linecap:round;stroke-linejoin:round;stroke-miterlimit:10;stroke-dasharray:none;stroke-opacity:1"
       id="path106"
       inkscape:connector-curvature="0" /><path
       d="m 664.379,1638.04 c 0,0 -0.301,-78.94 106.992,-206.63 7.375,-8.77 24.277,-43.95 25.527,-74.71 4.239,-103.85 4.903,-330.27 -70.32,-411.278 -68.566,-73.832 -135,-110 -193.75,-127.5 -70,-24.172 -142.5,0 -142.5,0 -58.75,17.5 -125.187,53.668 -193.75,127.5 -69.023,74.338 -74.14,269.538 -71.25,383.108 0,0 6.25,213.07 133.192,244.58"
       style="fill:none;stroke:#231f20;stroke-width:14;stroke-linecap:round;stroke-linejoin:round;stroke-miterlimit:10;stroke-dasharray:none;stroke-opacity:1"
       id="path108"
       inkscape:connector-curvature="0" /><path
       d="m 53.7344,1378.64 c -13.8164,-27.65 -25.9063,-50.11 -25.9063,-50.11 -77.5,302.08 86.2499,356.82 86.2499,356.82 0,0 -64.8241,20 -63.0389,83.75 0,0 89.2889,-21.25 187.6169,36.25 91.016,53.22 220.157,89.63 350.84,64.69 117.91,-22.5 140.832,-106.09 140.832,-106.09 0,0 117.098,-16.81 161.25,-142.91 47.5,-135.69 7.5,-266.94 7.5,-266.94 0,0 -10.82,33.52 -24.269,69.47"
       style="fill:none;stroke:#231f20;stroke-width:14;stroke-linecap:round;stroke-linejoin:round;stroke-miterlimit:10;stroke-dasharray:none;stroke-opacity:1"
       id="path110"
       inkscape:connector-curvature="0" /><path
       d="m 44.7227,1360.84 c 0,0 -4.0039,-34.2 17.2461,-93.79"
       style="fill:none;stroke:#231f20;stroke-width:14;stroke-linecap:round;stroke-linejoin:round;stroke-miterlimit:10;stroke-dasharray:none;stroke-opacity:1"
       id="path112"
       inkscape:connector-curvature="0" /><path
       d="m 886.879,1390.16 c 0,0 -2.606,-53.52 -32.82,-124.55"
       style="fill:none;stroke:#231f20;stroke-width:14;stroke-linecap:round;stroke-linejoin:round;stroke-miterlimit:10;stroke-dasharray:none;stroke-opacity:1"
       id="path114"
       inkscape:connector-curvature="0" /><path
       d="m 365.863,1415.29 c -4.121,-3.47 -15.019,3.39 -30.742,12.96 -15.527,9.39 -37.195,21.26 -57.793,18.27 -20.73,-2.45 -38.543,-19.14 -49.148,-32.35 -11.047,-13.39 -15.196,-23.54 -20.352,-24.01 -2.539,-0.15 -5.371,3.16 -6.484,9.77 -1.133,6.52 -0.449,15.97 3.25,26.63 3.711,10.65 10.312,22.73 21.308,33.82 10.821,10.95 27.032,21.05 46.563,23.51 19.531,2.62 37.773,-3.06 50.859,-10.63 13.34,-7.62 22.746,-16.86 29.512,-25.12 13.398,-16.74 16.855,-29.7 13.027,-32.85"
       style="fill:#231f20;fill-opacity:1;fill-rule:nonzero;stroke:none"
       id="path116"
       inkscape:connector-curvature="0" /><path
       d="m 557.289,1415.29 c -3.828,3.15 -0.371,16.11 13.027,32.85 6.77,8.26 16.172,17.5 29.512,25.12 13.086,7.57 31.328,13.25 50.86,10.63 19.531,-2.46 35.742,-12.56 46.562,-23.51 10.996,-11.09 17.598,-23.17 21.309,-33.82 3.703,-10.66 4.375,-20.11 3.254,-26.63 -1.125,-6.61 -3.958,-9.92 -6.497,-9.77 -5.144,0.47 -9.296,10.62 -20.339,24.01 -10.606,13.21 -28.418,29.9 -49.153,32.35 -20.594,2.99 -42.265,-8.88 -57.793,-18.27 -15.722,-9.57 -26.621,-16.43 -30.742,-12.96"
       style="fill:#231f20;fill-opacity:1;fill-rule:nonzero;stroke:none"
       id="path118"
       inkscape:connector-curvature="0" /><path
       d="M 391.734,789.09 C 374.164,779.25 349.867,757.359 343.941,710.352 336.461,651.039 360.297,388.551 461.012,34.5"
       style="fill:none;stroke:#231f20;stroke-width:14;stroke-linecap:round;stroke-linejoin:round;stroke-miterlimit:10;stroke-dasharray:none;stroke-opacity:1"
       id="path120"
       inkscape:connector-curvature="0" /><path
       d="M 527.68,790.859 C 545.355,782 572.523,760.441 578.844,710.352 586.324,651.039 561.723,388.551 461.012,34.5"
       style="fill:none;stroke:#231f20;stroke-width:14;stroke-linecap:round;stroke-linejoin:round;stroke-miterlimit:10;stroke-dasharray:none;stroke-opacity:1"
       id="path122"
       inkscape:connector-curvature="0" /><path
       d="m 343.629,755.539 -121.172,-88.828 48.914,-87.5 -76.25,-64.602 c 0,0 109.727,-335.64 195.227,-450.0074"
       style="fill:none;stroke:#231f20;stroke-width:12;stroke-linecap:round;stroke-linejoin:round;stroke-miterlimit:10;stroke-dasharray:none;stroke-opacity:1"
       id="path124"
       inkscape:connector-curvature="0" /><path
       d="m 525.934,815.922 c 0,0 0.808,-36.262 3.25,-53.371 0,0 -21.629,-47.199 -67.95,-60.949 -46.316,13.75 -69.746,60.539 -69.746,60.539 1.223,19.968 1.633,53.781 1.633,53.781"
       style="fill:none;stroke:#231f20;stroke-width:14;stroke-linecap:round;stroke-linejoin:round;stroke-miterlimit:10;stroke-dasharray:none;stroke-opacity:1"
       id="path126"
       inkscape:connector-curvature="0" /><path
       d="m 564.234,759.332 c 53.731,-21.402 213.321,-84.703 241.094,-92.73"
       style="fill:none;stroke:#231f20;stroke-width:14;stroke-linecap:round;stroke-linejoin:round;stroke-miterlimit:10;stroke-dasharray:none;stroke-opacity:1"
       id="path128"
       inkscape:connector-curvature="0" /><path
       d="m 589.203,749.031 119.16,-82.32 -48.914,-87.5 76.25,-64.602 c 0,0 -148.281,-351.679 -228.437,-454.277"
       style="fill:none;stroke:#231f20;stroke-width:12;stroke-linecap:round;stroke-linejoin:round;stroke-miterlimit:10;stroke-dasharray:none;stroke-opacity:1"
       id="path130"
       inkscape:connector-curvature="0" /><path
       d="M 431.176,657.059 442.379,604.102 399.762,268.25"
       style="fill:none;stroke:#231f20;stroke-width:12;stroke-linecap:round;stroke-linejoin:round;stroke-miterlimit:10;stroke-dasharray:none;stroke-opacity:1"
       id="path132"
       inkscape:connector-curvature="0" /><path
       d="M 491.605,657.059 480.406,604.102 523.512,273.25"
       style="fill:none;stroke:#231f20;stroke-width:12;stroke-linecap:round;stroke-linejoin:round;stroke-miterlimit:10;stroke-dasharray:none;stroke-opacity:1"
       id="path134"
       inkscape:connector-curvature="0" /><path
       d="M 826.156,515.199 740.328,19.4883"
       style="fill:none;stroke:#231f20;stroke-width:12;stroke-linecap:round;stroke-linejoin:round;stroke-miterlimit:10;stroke-dasharray:none;stroke-opacity:1"
       id="path136"
       inkscape:connector-curvature="0" /><path
       d="m 856.012,451.539 c 0,0 -18.301,-103.82 -73.867,-155.629"
       style="fill:none;stroke:#231f20;stroke-width:10;stroke-linecap:round;stroke-linejoin:round;stroke-miterlimit:10;stroke-dasharray:none;stroke-opacity:1"
       id="path138"
       inkscape:connector-curvature="0" /><path
       d="M 355.23,759.332 C 301.5,737.93 141.91,674.629 114.137,666.602 57.8867,650.352 13.9883,371.27 13.9883,19.4883"
       style="fill:none;stroke:#231f20;stroke-width:14;stroke-linecap:round;stroke-linejoin:round;stroke-miterlimit:10;stroke-dasharray:none;stroke-opacity:1"
       id="path140"
       inkscape:connector-curvature="0" /><path
       d="M 81.4297,613.66 183.922,19.4883"
       style="fill:none;stroke:#231f20;stroke-width:12;stroke-linecap:round;stroke-linejoin:round;stroke-miterlimit:10;stroke-dasharray:none;stroke-opacity:1"
       id="path142"
       inkscape:connector-curvature="0" /><path
       d="m 59.5938,451.539 c 0,0 18.3007,-103.82 73.8672,-155.629"
       style="fill:none;stroke:#231f20;stroke-width:10;stroke-linecap:round;stroke-linejoin:round;stroke-miterlimit:10;stroke-dasharray:none;stroke-opacity:1"
       id="path144"
       inkscape:connector-curvature="0" /><path
       d="M 578.844,710.352 C 574.527,649.102 552.027,582.23 552.027,582.23 L 461.391,701.602 370.758,582.23 c 0,0 -22.5,66.872 -26.817,128.122"
       style="fill:none;stroke:#231f20;stroke-width:12;stroke-linecap:round;stroke-linejoin:round;stroke-miterlimit:10;stroke-dasharray:none;stroke-opacity:1"
       id="path146"
       inkscape:connector-curvature="0" /><path
       d="m 1566.62,644.5 c -52.55,-20.32 -218.48,-80.621 -245.64,-88.25 -55.01,-15.441 -76.14,-226.762 -47.83,-536.7617"
       style="fill:none;stroke:#231f20;stroke-width:14;stroke-linecap:round;stroke-linejoin:round;stroke-miterlimit:10;stroke-dasharray:none;stroke-opacity:1"
       id="path148"
       inkscape:connector-curvature="0" /><path
       d="M 1328,470.352 1400.5,19.4883"
       style="fill:none;stroke:#231f20;stroke-width:12;stroke-linecap:round;stroke-linejoin:round;stroke-miterlimit:10;stroke-dasharray:none;stroke-opacity:1"
       id="path150"
       inkscape:connector-curvature="0" /><path
       d="m 1302.83,355.699 c 0,0 17.39,-98.64 70.17,-147.847"
       style="fill:none;stroke:#231f20;stroke-width:10;stroke-linecap:round;stroke-linejoin:round;stroke-miterlimit:10;stroke-dasharray:none;stroke-opacity:1"
       id="path152"
       inkscape:connector-curvature="0" /><path
       d="m 1676.46,642.488 c 52.55,-20.316 211.4,-78.609 238.56,-86.238 26.48,-7.418 45.11,-59.82 54.15,-146.738"
       style="fill:none;stroke:#231f20;stroke-width:14;stroke-linecap:round;stroke-linejoin:round;stroke-miterlimit:10;stroke-dasharray:none;stroke-opacity:1"
       id="path154"
       inkscape:connector-curvature="0" /><path
       d="M 1908,470.352 1835.5,19.4883"
       style="fill:none;stroke:#231f20;stroke-width:12;stroke-linecap:round;stroke-linejoin:round;stroke-miterlimit:10;stroke-dasharray:none;stroke-opacity:1"
       id="path156"
       inkscape:connector-curvature="0" /><path
       d="m 1722.35,682.012 c 168.75,-19.59 199.59,71.25 199.59,71.25 l 21.66,-86.66 c 58.33,48.339 72.06,257.523 72.06,257.523 l 22.93,187.195 c 29.58,423.75 -192.49,444.79 -192.49,444.79 -46.88,105 -389.38,180 -561.62,-70.84 -108.85,-158.52 -88.91,-380.08 -88.91,-380.08 l 55.06,-191.065 c 0,0 42.21,-155.863 2.59,-229.195 0,0 73.72,14.992 82.05,38.332 0,0 23.3,-48.332 173.31,-38.332"
       style="fill:#85483c;fill-opacity:1;fill-rule:nonzero;stroke:none"
       id="path158"
       inkscape:connector-curvature="0" /><path
       d="m 1846.1,1556.11 c -46.88,105 -389.38,180 -561.62,-70.84 -108.85,-158.52 -88.91,-380.08 -88.91,-380.08 l 34.28,8.42 c 0,0 -19.02,297.26 155.41,425.84 199.69,147.18 384.42,53.06 456.67,18.32 1.67,0 4.17,-1.66 4.17,-1.66"
       style="fill:#e7b39d;fill-opacity:1;fill-rule:nonzero;stroke:none"
       id="path160"
       inkscape:connector-curvature="0" /><path
       d="m 1282.6,1088 c 0,0 -20.19,39.18 -58.19,27.3 -79.25,-24.76 -53.84,-196.546 77.12,-211.362"
       style="fill:#fcd0b4;fill-opacity:1;fill-rule:nonzero;stroke:none"
       id="path162"
       inkscape:connector-curvature="0" /><path
       d="m 1958.27,1087.34 c 0,0 20.19,39.18 58.19,27.31 79.25,-24.77 58.19,-196.552 -74.81,-211.377"
       style="fill:#fcd0b4;fill-opacity:1;fill-rule:nonzero;stroke:none"
       id="path164"
       inkscape:connector-curvature="0" /><path
       d="m 1954.17,1128.61 c -9.49,-22.47 -19.13,-36.15 -19.13,-36.15 -31.44,241.67 -291.44,348.65 -291.44,348.65 136.96,-120.43 138.12,-187.71 138.12,-187.71 -231.25,-12.5 -346.93,152.24 -346.93,152.24 0,0 -1.21,-28.64 -16.29,-72.38 -17.79,-51.59 -55.01,-124.2 -132.2,-195.61 -0.12,-1.1 -0.18,-1.71 -0.18,-1.71 -3.93,-65.17 -2.89,-178.428 27.48,-269.331 53.75,-160.89 225.25,-197.347 306.67,-197.347 81.41,0 252.92,36.457 306.67,197.347 28.73,86.008 41.29,193.271 28.07,258.381 -0.24,1.21 -0.58,2.42 -0.84,3.62"
       style="fill:#fcd0b4;fill-opacity:1;fill-rule:nonzero;stroke:none"
       id="path166"
       inkscape:connector-curvature="0" /><path
       d="m 1531.45,1060.34 c 0,-49.66 -30.86,-89.918 -68.93,-89.918 -38.06,0 -68.94,40.258 -68.94,89.918 0,49.65 30.88,89.91 68.94,89.91 38.07,0 68.93,-40.26 68.93,-89.91"
       style="fill:#ffffff;fill-opacity:1;fill-rule:nonzero;stroke:none"
       id="path168"
       inkscape:connector-curvature="0" /><path
       d="m 1850.65,1060.34 c 0,-49.66 -30.86,-89.918 -68.93,-89.918 -38.06,0 -68.93,40.258 -68.93,89.918 0,49.65 30.87,89.91 68.93,89.91 38.07,0 68.93,-40.26 68.93,-89.91"
       style="fill:#ffffff;fill-opacity:1;fill-rule:nonzero;stroke:none"
       id="path170"
       inkscape:connector-curvature="0" /><path
       d="m 1520.71,1047.36 c 0,-33.83 -19.04,-61.255 -42.5,-61.255 -23.48,0 -42.5,27.425 -42.5,61.255 0,33.82 19.02,61.25 42.5,61.25 23.46,0 42.5,-27.43 42.5,-61.25"
       style="fill:#231f20;fill-opacity:1;fill-rule:nonzero;stroke:none"
       id="path172"
       inkscape:connector-curvature="0" /><path
       d="m 1722.35,1047.36 c 0,-33.83 19.02,-61.255 42.5,-61.255 23.48,0 42.5,27.425 42.5,61.255 0,33.82 -19.02,61.25 -42.5,61.25 -23.48,0 -42.5,-27.43 -42.5,-61.25"
       style="fill:#231f20;fill-opacity:1;fill-rule:nonzero;stroke:none"
       id="path174"
       inkscape:connector-curvature="0" /><path
       d="m 1424.22,960.285 c 0,-15.535 -26.21,-28.144 -58.54,-28.144 -32.34,0 -58.56,12.609 -58.56,28.144 0,15.547 26.22,28.153 58.56,28.153 32.33,0 58.54,-12.606 58.54,-28.153"
       style="fill:#f68b9a;fill-opacity:1;fill-rule:nonzero;stroke:none"
       id="path176"
       inkscape:connector-curvature="0" /><path
       d="m 1933.97,960.285 c 0,-15.535 -26.22,-28.144 -58.55,-28.144 -32.35,0 -58.56,12.609 -58.56,28.144 0,15.547 26.21,28.153 58.56,28.153 32.33,0 58.55,-12.606 58.55,-28.153"
       style="fill:#f68b9a;fill-opacity:1;fill-rule:nonzero;stroke:none"
       id="path178"
       inkscape:connector-curvature="0" /><path
       d="m 1519.96,1067.86 c 0,-6.93 -5.62,-12.55 -12.55,-12.55 -6.94,0 -12.56,5.62 -12.56,12.55 0,6.94 5.62,12.56 12.56,12.56 6.93,0 12.55,-5.62 12.55,-12.56"
       style="fill:#ffffff;fill-opacity:1;fill-rule:nonzero;stroke:none"
       id="path180"
       inkscape:connector-curvature="0" /><path
       d="m 1804.07,1067.86 c 0,-6.93 -5.63,-12.55 -12.56,-12.55 -6.93,0 -12.56,5.62 -12.56,12.55 0,6.94 5.63,12.56 12.56,12.56 6.93,0 12.56,-5.62 12.56,-12.56"
       style="fill:#ffffff;fill-opacity:1;fill-rule:nonzero;stroke:none"
       id="path182"
       inkscape:connector-curvature="0" /><path
       d="m 1291.94,958.137 -5.84,63.203 c 0,0 -16.43,39.2 -41.66,45.25 -32.5,7.82 -33.17,-44.56 -10.84,-74.117 34.16,-45.274 58.34,-34.336 58.34,-34.336"
       style="fill:#da907b;fill-opacity:1;fill-rule:nonzero;stroke:none"
       id="path184"
       inkscape:connector-curvature="0" /><path
       d="m 1953.6,958.137 5.84,63.203 c 0,0 16.42,39.2 41.66,45.25 32.5,7.82 33.16,-44.56 10.84,-74.117 -34.16,-45.274 -58.34,-34.336 -58.34,-34.336"
       style="fill:#da907b;fill-opacity:1;fill-rule:nonzero;stroke:none"
       id="path186"
       inkscape:connector-curvature="0" /><path
       d="m 1468.6,1128.21 c 15.97,0 31.18,-2.89 45.21,-7.98 -12.61,18.38 -30.89,30.02 -51.29,30.02 -23.04,0 -43.37,-14.8 -55.89,-37.45 18.27,9.76 39.39,15.41 61.97,15.41"
       style="fill:#d8e5f6;fill-opacity:1;fill-rule:nonzero;stroke:none"
       id="path188"
       inkscape:connector-curvature="0" /><path
       d="m 1776.09,1128.21 c -15.97,0 -31.18,-2.89 -45.22,-7.98 12.62,18.38 30.89,30.02 51.29,30.02 23.05,0 43.38,-14.8 55.9,-37.45 -18.27,9.76 -39.39,15.41 -61.97,15.41"
       style="fill:#d8e5f6;fill-opacity:1;fill-rule:nonzero;stroke:none"
       id="path190"
       inkscape:connector-curvature="0" /><path
       d="m 1323.47,1502.77 c 109.16,-36.64 181.65,-37.06 222.29,-31.47 27.29,3.75 12.91,13.52 0.48,15.68 -127.91,22.43 -166.08,71.55 -166.08,71.55 l -56.69,-55.76"
       style="fill:#e7b39d;fill-opacity:1;fill-rule:nonzero;stroke:none"
       id="path192"
       inkscape:connector-curvature="0" /><path
       d="m 1521.1,1224.13 c -26.25,20 -92.5,30 -128.75,-13.75"
       style="fill:none;stroke:#231f20;stroke-width:14;stroke-linecap:round;stroke-linejoin:round;stroke-miterlimit:10;stroke-dasharray:none;stroke-opacity:1"
       id="path194"
       inkscape:connector-curvature="0" /><path
       d="m 1523.91,1112.45 c -28.92,60.98 -150.12,61.25 -132.81,-82.59"
       style="fill:none;stroke:#231f20;stroke-width:16;stroke-linecap:round;stroke-linejoin:round;stroke-miterlimit:10;stroke-dasharray:none;stroke-opacity:1"
       id="path196"
       inkscape:connector-curvature="0" /><path
       d="m 1282.6,1088 c 0,0 -20.19,39.18 -58.19,27.3 -79.25,-24.76 -53.84,-196.546 77.12,-211.362"
       style="fill:none;stroke:#231f20;stroke-width:14;stroke-linecap:round;stroke-linejoin:round;stroke-miterlimit:10;stroke-dasharray:none;stroke-opacity:1"
       id="path198"
       inkscape:connector-curvature="0" /><path
       d="m 1225.83,1069 c 0,0 26.13,17.81 58.19,-52.25"
       style="fill:none;stroke:#231f20;stroke-width:14;stroke-linecap:round;stroke-linejoin:round;stroke-miterlimit:10;stroke-dasharray:none;stroke-opacity:1"
       id="path200"
       inkscape:connector-curvature="0" /><path
       d="m 1286.12,1135.94 c -3.93,-65.17 -2.89,-178.428 27.48,-269.331 53.75,-160.89 225.25,-197.347 306.67,-197.347 81.41,0 252.92,36.457 306.67,197.347 28.73,86.008 31.22,192.021 28.07,258.381"
       style="fill:none;stroke:#231f20;stroke-width:14;stroke-linecap:round;stroke-linejoin:round;stroke-miterlimit:10;stroke-dasharray:none;stroke-opacity:1"
       id="path202"
       inkscape:connector-curvature="0" /><path
       d="m 1717.35,1224.13 c 26.25,20 92.5,30 128.75,-13.75"
       style="fill:none;stroke:#231f20;stroke-width:14;stroke-linecap:round;stroke-linejoin:round;stroke-miterlimit:10;stroke-dasharray:none;stroke-opacity:1"
       id="path204"
       inkscape:connector-curvature="0" /><path
       d="m 1717.5,1106.55 c 23.64,66.72 153.11,71.66 135.26,-76.69"
       style="fill:none;stroke:#231f20;stroke-width:16;stroke-linecap:round;stroke-linejoin:round;stroke-miterlimit:10;stroke-dasharray:none;stroke-opacity:1"
       id="path206"
       inkscape:connector-curvature="0" /><path
       d="m 1958.27,1087.34 c 0,0 20.19,39.18 58.19,27.31 79.25,-24.77 58.19,-196.552 -74.81,-211.377"
       style="fill:none;stroke:#231f20;stroke-width:14;stroke-linecap:round;stroke-linejoin:round;stroke-miterlimit:10;stroke-dasharray:none;stroke-opacity:1"
       id="path208"
       inkscape:connector-curvature="0" /><path
       d="m 2014.28,1068.33 c 0,0 -26.11,17.81 -58.18,-52.24"
       style="fill:none;stroke:#231f20;stroke-width:14;stroke-linecap:round;stroke-linejoin:round;stroke-miterlimit:10;stroke-dasharray:none;stroke-opacity:1"
       id="path210"
       inkscape:connector-curvature="0" /><path
       d="m 1367.35,1072.36 22.07,-13.75"
       style="fill:none;stroke:#231f20;stroke-width:14;stroke-linecap:round;stroke-linejoin:round;stroke-miterlimit:10;stroke-dasharray:none;stroke-opacity:1"
       id="path212"
       inkscape:connector-curvature="0" /><path
       d="m 1854.44,1058.61 29.57,13.75"
       style="fill:none;stroke:#231f20;stroke-width:14;stroke-linecap:round;stroke-linejoin:round;stroke-miterlimit:10;stroke-dasharray:none;stroke-opacity:1"
       id="path214"
       inkscape:connector-curvature="0" /><path
       d="m 1620.27,914.125 0,20"
       style="fill:none;stroke:#231f20;stroke-width:14;stroke-linecap:round;stroke-linejoin:round;stroke-miterlimit:10;stroke-dasharray:none;stroke-opacity:1"
       id="path216"
       inkscape:connector-curvature="0" /><path
       d="m 1946.94,1307.45 c 63.53,-108.32 -11.9,-214.99 -11.9,-214.99 -31.44,241.67 -291.44,348.65 -291.44,348.65 136.96,-120.43 138.12,-187.71 138.12,-187.71 -231.25,-12.5 -346.93,152.24 -346.93,152.24 0,0 -5.92,-140.04 -154.73,-273.79 0,0 -21.46,93.92 9.79,163.94"
       style="fill:none;stroke:#231f20;stroke-width:14;stroke-linecap:round;stroke-linejoin:round;stroke-miterlimit:10;stroke-dasharray:none;stroke-opacity:1"
       id="path218"
       inkscape:connector-curvature="0" /><path
       d="m 1197.76,1097.59 c 0,0 -22.13,229.16 86.72,387.68 172.24,250.84 514.74,175.84 561.62,70.84 0,0 221.36,-26.87 191.78,-450.62"
       style="fill:none;stroke:#231f20;stroke-width:14;stroke-linecap:round;stroke-linejoin:round;stroke-miterlimit:10;stroke-dasharray:none;stroke-opacity:1"
       id="path220"
       inkscape:connector-curvature="0" /><path
       d="m 1250.63,914.125 c 0,0 42.21,-155.863 2.59,-229.195 0,0 73.72,14.992 82.05,38.332 0,0 23.3,-48.332 173.31,-38.332"
       style="fill:none;stroke:#231f20;stroke-width:14;stroke-linecap:round;stroke-linejoin:round;stroke-miterlimit:10;stroke-dasharray:none;stroke-opacity:1"
       id="path222"
       inkscape:connector-curvature="0" /><path
       d="m 2015.66,924.125 c 0,0 -13.73,-209.184 -72.06,-257.523 l -21.66,86.66 c 0,0 -30.84,-90.84 -199.59,-71.25"
       style="fill:none;stroke:#231f20;stroke-width:14;stroke-linecap:round;stroke-linejoin:round;stroke-miterlimit:10;stroke-dasharray:none;stroke-opacity:1"
       id="path224"
       inkscape:connector-curvature="0" /><path
       d="m 1703.35,630.59 83.82,-96.899 -30.78,-28.711 34.74,-38.421 -145.8,-358.707"
       style="fill:none;stroke:#231f20;stroke-width:12;stroke-linecap:round;stroke-linejoin:round;stroke-miterlimit:10;stroke-dasharray:none;stroke-opacity:1"
       id="path226"
       inkscape:connector-curvature="0" /><path
       d="m 1542.99,633.691 -84.16,-100 30.78,-28.711 -34.73,-38.421 145.8,-358.707"
       style="fill:none;stroke:#231f20;stroke-width:12;stroke-linecap:round;stroke-linejoin:round;stroke-miterlimit:10;stroke-dasharray:none;stroke-opacity:1"
       id="path228"
       inkscape:connector-curvature="0" /><path
       d="m 1572.77,665.461 -4.76,-50.941 c 0,0 28.75,-39.168 54.16,-39.168 37.5,0 52.95,51.48 52.95,51.48 l -2.18,40.727"
       style="fill:none;stroke:#231f20;stroke-width:14;stroke-linecap:round;stroke-linejoin:round;stroke-miterlimit:10;stroke-dasharray:none;stroke-opacity:1"
       id="path230"
       inkscape:connector-curvature="0" /><path
       d="m 1568.01,629.922 c 0,0 -37.5,-171.231 53.33,-533.7306"
       style="fill:none;stroke:#231f20;stroke-width:14;stroke-linecap:round;stroke-linejoin:round;stroke-miterlimit:10;stroke-dasharray:none;stroke-opacity:1"
       id="path232"
       inkscape:connector-curvature="0" /><path
       d="m 1675.51,629.512 c 0,0 36.66,-170.821 -54.17,-533.3206"
       style="fill:none;stroke:#231f20;stroke-width:14;stroke-linecap:round;stroke-linejoin:round;stroke-miterlimit:10;stroke-dasharray:none;stroke-opacity:1"
       id="path234"
       inkscape:connector-curvature="0" /><path
       d="m 1563,502.852 59.17,72.5 59.58,-80"
       style="fill:none;stroke:#231f20;stroke-width:12;stroke-linecap:round;stroke-linejoin:round;stroke-miterlimit:10;stroke-dasharray:none;stroke-opacity:1"
       id="path236"
       inkscape:connector-curvature="0" /><path
       d="m 1732.64,855.34 c -15.06,-23.43 -49.72,-65.25 -110,-65.25 -60.27,0 -94.94,41.82 -110.03,65.25"
       style="fill:none;stroke:#231f20;stroke-width:16;stroke-linecap:round;stroke-linejoin:round;stroke-miterlimit:10;stroke-dasharray:none;stroke-opacity:1"
       id="path238"
       inkscape:connector-curvature="0" /><path
       d="M 2009.02,614.82 1606.63,322.012 1846.19,16.0313 2228.94,294.512 2009.02,614.82"
       style="fill:#fddd95;fill-opacity:1;fill-rule:nonzero;stroke:none"
       id="path240"
       inkscape:connector-curvature="0" /><path
       d="M 2009.02,614.82 1606.63,322.012 1846.19,16.0313 2228.94,294.512 2009.02,614.82 Z"
       style="fill:none;stroke:#231f20;stroke-width:14;stroke-linecap:round;stroke-linejoin:round;stroke-miterlimit:10;stroke-dasharray:none;stroke-opacity:1"
       id="path242"
       inkscape:connector-curvature="0" /><path
       d="m 1941.85,375.672 38.06,-63.524 -62.33,-56.308 -51.69,87.359"
       style="fill:#fcd0b4;fill-opacity:1;fill-rule:nonzero;stroke:none"
       id="path244"
       inkscape:connector-curvature="0" /><path
       d="m 1941.85,375.672 38.06,-63.524 -62.33,-56.308 -51.69,87.359"
       style="fill:none;stroke:#231f20;stroke-width:14;stroke-linecap:round;stroke-linejoin:round;stroke-miterlimit:10;stroke-dasharray:none;stroke-opacity:1"
       id="path246"
       inkscape:connector-curvature="0" /><path
       d="m 1874.8,331.922 c -42.93,4.316 -98.13,36.887 -115.5,76.699 -14.63,33.719 -3.76,49.231 4.03,57.969 16.74,18.93 47.23,42.289 47.23,42.289 0,0 2.31,34 19.1,40.851 26.74,10.899 39.43,-10.039 49.17,-25.91 0,0 0.98,32.731 26.39,39.782 17.46,4.847 7.38,-25.293 30.2,-59.391 5.44,-8.121 30.3,-27.75 28.52,-64.699 C 1962.7,413.629 1944.1,369 1944.1,369"
       style="fill:#fcd0b4;fill-opacity:1;fill-rule:nonzero;stroke:none"
       id="path248"
       inkscape:connector-curvature="0" /><path
       d="m 1874.8,331.922 c -42.93,4.316 -98.13,36.887 -115.5,76.699 -14.63,33.719 -3.76,49.231 4.03,57.969 16.74,18.93 47.23,42.289 47.23,42.289 0,0 2.31,34 19.1,40.851 26.74,10.899 39.43,-10.039 49.17,-25.91 0,0 0.98,32.731 26.39,39.782 17.46,4.847 7.38,-25.293 30.2,-59.391 5.44,-8.121 30.3,-27.75 28.52,-64.699 C 1962.7,413.629 1944.1,369 1944.1,369"
       style="fill:none;stroke:#231f20;stroke-width:14;stroke-linecap:round;stroke-linejoin:round;stroke-miterlimit:10;stroke-dasharray:none;stroke-opacity:1"
       id="path250"
       inkscape:connector-curvature="0" /><path
       d="m 1876.04,529.332 c 0,0 26.79,-48.711 38.8,-73.223"
       style="fill:#fcd0b4;fill-opacity:1;fill-rule:nonzero;stroke:none"
       id="path252"
       inkscape:connector-curvature="0" /><path
       d="m 1876.04,529.332 c 0,0 26.79,-48.711 38.8,-73.223"
       style="fill:none;stroke:#231f20;stroke-width:14;stroke-linecap:round;stroke-linejoin:round;stroke-miterlimit:10;stroke-dasharray:none;stroke-opacity:1"
       id="path254"
       inkscape:connector-curvature="0" /><path
       d="m 1910.21,247.398 -20.18,39.133 68.59,78.649 21.38,-32.371"
       style="fill:#ffffff;fill-opacity:1;fill-rule:nonzero;stroke:none"
       id="path256"
       inkscape:connector-curvature="0" /><path
       d="m 1910.21,247.398 -20.18,39.133 68.59,78.649 21.38,-32.371"
       style="fill:none;stroke:#231f20;stroke-width:14;stroke-linecap:round;stroke-linejoin:round;stroke-miterlimit:10;stroke-dasharray:none;stroke-opacity:1"
       id="path258"
       inkscape:connector-curvature="0" /><path
       d="m 1980.92,346.801 c 0,0 53.75,-82.512 90.59,-129.039 32.48,-41.024 41.27,-71.813 25.12,-106.782 -11.54,-24.9683 -66.39,-53.8902 -106.92,-1.429 -35.02,45.289 -91.1,142.269 -91.1,142.269 l 82.31,94.981"
       style="fill:#4f4c4c;fill-opacity:1;fill-rule:nonzero;stroke:none"
       id="path260"
       inkscape:connector-curvature="0" /><path
       d="m 1980.92,346.801 c 0,0 53.75,-82.512 90.59,-129.039 32.48,-41.024 41.27,-71.813 25.12,-106.782 -11.54,-24.9683 -66.39,-53.8902 -106.92,-1.429 -35.02,45.289 -91.1,142.269 -91.1,142.269 l 82.31,94.981 z"
       style="fill:none;stroke:#231f20;stroke-width:14;stroke-linecap:round;stroke-linejoin:round;stroke-miterlimit:10;stroke-dasharray:none;stroke-opacity:1"
       id="path262"
       inkscape:connector-curvature="0" /><path
       d="M 896.566,735.359 426.188,363.91 728.941,7 1176.38,360.262 896.566,735.359"
       style="fill:#fddd95;fill-opacity:1;fill-rule:nonzero;stroke:none"
       id="path264"
       inkscape:connector-curvature="0" /><path
       d="M 896.566,735.359 426.188,363.91 728.941,7 1176.38,360.262 896.566,735.359 Z"
       style="fill:none;stroke:#231f20;stroke-width:14;stroke-linecap:round;stroke-linejoin:round;stroke-miterlimit:10;stroke-dasharray:none;stroke-opacity:1"
       id="path266"
       inkscape:connector-curvature="0" /><path
       d="M 832.855,448.891 872.477,368.969 792.262,307.34 738.59,417.199"
       style="fill:#fcd0b4;fill-opacity:1;fill-rule:nonzero;stroke:none"
       id="path268"
       inkscape:connector-curvature="0" /><path
       d="M 832.855,448.891 872.477,368.969 792.262,307.34 738.59,417.199"
       style="fill:none;stroke:#231f20;stroke-width:14;stroke-linecap:round;stroke-linejoin:round;stroke-miterlimit:10;stroke-dasharray:none;stroke-opacity:1"
       id="path270"
       inkscape:connector-curvature="0" /><path
       d="m 748.188,402.77 c -51.102,9.3 -114.286,53.66 -131.336,103.16 -14.336,41.84 0.214,59.449 10.39,69.172 21.895,21.136 60.742,46.269 60.742,46.269 0,0 6.016,40.617 26.836,47.219 33.125,10.539 46.375,-15.82 56.543,-35.809 0,0 4.317,39.188 35.508,45.239 21.406,4.16 6.445,-31.079 30.567,-74.211 5.769,-10.258 33.699,-36.18 28.074,-80.379 -4.004,-30.961 -30.574,-82.758 -30.574,-82.758"
       style="fill:#fcd0b4;fill-opacity:1;fill-rule:nonzero;stroke:none"
       id="path272"
       inkscape:connector-curvature="0" /><path
       d="m 748.188,402.77 c -51.102,9.3 -114.286,53.66 -131.336,103.16 -14.336,41.84 0.214,59.449 10.39,69.172 21.895,21.136 60.742,46.269 60.742,46.269 0,0 6.016,40.617 26.836,47.219 33.125,10.539 46.375,-15.82 56.543,-35.809 0,0 4.317,39.188 35.508,45.239 21.406,4.16 6.445,-31.079 30.567,-74.211 5.769,-10.258 33.699,-36.18 28.074,-80.379 -4.004,-30.961 -30.574,-82.758 -30.574,-82.758"
       style="fill:none;stroke:#231f20;stroke-width:14;stroke-linecap:round;stroke-linejoin:round;stroke-miterlimit:10;stroke-dasharray:none;stroke-opacity:1"
       id="path274"
       inkscape:connector-curvature="0" /><path
       d="m 768.539,639.672 c 0,0 27.5,-61.063 39.602,-91.66"
       style="fill:#fcd0b4;fill-opacity:1;fill-rule:nonzero;stroke:none"
       id="path276"
       inkscape:connector-curvature="0" /><path
       d="m 768.539,639.672 c 0,0 27.5,-61.063 39.602,-91.66"
       style="fill:none;stroke:#231f20;stroke-width:14;stroke-linecap:round;stroke-linejoin:round;stroke-miterlimit:10;stroke-dasharray:none;stroke-opacity:1"
       id="path278"
       inkscape:connector-curvature="0" /><path
       d="m 782.582,297.922 -20.477,48.887 89.891,87.89 22.578,-40.949"
       style="fill:#ffffff;fill-opacity:1;fill-rule:nonzero;stroke:none"
       id="path280"
       inkscape:connector-curvature="0" /><path
       d="m 782.582,297.922 -20.477,48.887 89.891,87.89 22.578,-40.949"
       style="fill:none;stroke:#231f20;stroke-width:14;stroke-linecap:round;stroke-linejoin:round;stroke-miterlimit:10;stroke-dasharray:none;stroke-opacity:1"
       id="path282"
       inkscape:connector-curvature="0" /><path
       d="m 877.379,410.871 c 0,0 60.098,-110.57 102.285,-173.59 37.246,-55.57 45.316,-95.672 21.186,-138.5818 C 983.609,68.0586 910.805,36.7695 864.477,107.73 824.449,168.969 762.828,298.219 762.828,298.219 l 114.551,112.652"
       style="fill:#4f4c4c;fill-opacity:1;fill-rule:nonzero;stroke:none"
       id="path284"
       inkscape:connector-curvature="0" /><path
       d="m 877.379,410.871 c 0,0 60.098,-110.57 102.285,-173.59 37.246,-55.57 45.316,-95.672 21.186,-138.5818 C 983.609,68.0586 910.805,36.7695 864.477,107.73 824.449,168.969 762.828,298.219 762.828,298.219 l 114.551,112.652 z"
       style="fill:none;stroke:#231f20;stroke-width:14;stroke-linecap:round;stroke-linejoin:round;stroke-miterlimit:10;stroke-dasharray:none;stroke-opacity:1"
       id="path286"
       inkscape:connector-curvature="0" /></g></svg>